<svg width="1500" height="500" viewBox="0 0 1500 500" fill="none" xmlns="http://www.w3.org/2000/svg">
<g clip-path="url(#clip0_1_4)">
<rect width="1500" height="500" rx="6" fill="#0D1117"/>
<path d="M101.344 70.12C131.808 70.12 148.832 86.504 148.832 115.688C148.832 144.744 132.064 161 102.112 161H67.936V70.12H101.344ZM93.024 140.904H101.344C116.576 140.904 123.488 132.968 123.488 115.56C123.488 98.152 116.576 90.216 101.344 90.216H93.024V140.904ZM158.936 161V70.12H184.024V105.192H211.032V70.12H236.12V161H211.032V125.288H184.024V161H158.936ZM247.456 161L280.224 70.12H308.768L341.536 161H315.936L310.816 146.024H278.048L272.928 161H247.456ZM284.704 126.568H304.288L294.56 97.768L284.704 126.568ZM350.686 70.12H376.158L406.238 121.96V70.12H431.454V161H405.214L375.774 111.72V161H350.686V70.12ZM524.623 127.464C524.623 149.224 509.263 163.048 484.943 163.048C460.623 163.048 445.391 149.224 445.391 127.464V69.992H470.479V127.464C470.479 137.832 475.983 142.952 484.943 142.952C494.031 142.952 499.407 137.832 499.407 127.464V69.992H524.623V127.464ZM561.345 129.384C562.625 137.448 568.385 142.568 577.857 142.568C584.513 142.568 589.121 139.88 588.993 134.888C588.737 129.896 584.641 127.336 573.121 124.648C550.081 119.272 538.049 110.824 538.049 96.232C538.049 78.952 552.897 68.072 575.681 68.072C596.545 68.072 611.009 80.744 613.185 100.072L588.481 101.096C587.841 92.776 582.721 87.784 575.041 87.784C567.745 87.784 562.881 91.368 563.521 96.744C563.905 102.12 570.177 104.296 578.753 106.216C601.537 110.568 614.337 119.656 614.337 134.504C614.337 152.04 599.233 162.536 577.473 162.536C553.793 162.536 537.665 150.248 536.385 130.536L561.345 129.384ZM625.811 161V70.12H650.899V105.192H677.907V70.12H702.995V161H677.907V125.288H650.899V161H625.811ZM151.52 285.44C147.552 309.248 132.32 322.048 110.176 322.048C82.784 322.048 64.48 302.08 64.48 274.688C64.48 247.296 82.784 227.072 110.176 227.072C132.064 227.072 147.424 239.488 151.392 262.656L125.408 263.552C123.616 253.184 117.856 247.168 109.536 247.168C96.608 247.168 90.208 258.176 90.208 274.688C90.208 291.072 96.736 301.952 109.536 301.952C118.24 301.952 123.872 295.68 125.408 284.544L151.52 285.44ZM163.311 320V229.12H188.399V264.192H215.407V229.12H240.495V320H215.407V284.288H188.399V320H163.311ZM253.311 229.12H278.399V320H253.311V229.12ZM294.311 320V229.12H319.399V299.904H358.951V320H294.311ZM367.581 320L400.349 229.12H428.893L461.661 320H436.061L430.941 305.024H398.173L393.053 320H367.581ZM404.829 285.568H424.413L414.685 256.768L404.829 285.568ZM470.811 229.12H495.899V265.088L523.675 229.12H552.091L520.219 269.696L553.883 320H526.107L503.835 285.952L495.899 295.68V320H470.811V229.12ZM561.081 320L593.849 229.12H622.393L655.161 320H629.561L624.441 305.024H591.673L586.553 320H561.081ZM598.329 285.568H617.913L608.185 256.768L598.329 285.568ZM664.311 320V229.12H689.399V299.904H728.951V320H664.311ZM737.581 320L770.349 229.12H798.893L831.661 320H806.061L800.941 305.024H768.173L763.053 320H737.581ZM774.829 285.568H794.413L784.685 256.768L774.829 285.568Z" fill="white"/>
<path d="M68.0221 373.36C66.7821 373.36 65.6621 373.148 64.6621 372.724C63.6701 372.292 62.8501 371.68 62.2021 370.888C61.5621 370.088 61.1461 369.14 60.9541 368.044L63.5701 367.648C63.8341 368.704 64.3861 369.528 65.2261 370.12C66.0661 370.704 67.0461 370.996 68.1661 370.996C68.8621 370.996 69.5021 370.888 70.0861 370.672C70.6701 370.448 71.1381 370.132 71.4901 369.724C71.8501 369.308 72.0301 368.812 72.0301 368.236C72.0301 367.924 71.9741 367.648 71.8621 367.408C71.7581 367.168 71.6101 366.96 71.4181 366.784C71.2341 366.6 71.0061 366.444 70.7341 366.316C70.4701 366.18 70.1781 366.064 69.8581 365.968L65.4301 364.66C64.9981 364.532 64.5581 364.368 64.1101 364.168C63.6621 363.96 63.2501 363.692 62.8741 363.364C62.5061 363.028 62.2061 362.616 61.9741 362.128C61.7421 361.632 61.6261 361.032 61.6261 360.328C61.6261 359.264 61.8981 358.364 62.4421 357.628C62.9941 356.884 63.7381 356.324 64.6741 355.948C65.6101 355.564 66.6581 355.372 67.8181 355.372C68.9861 355.388 70.0301 355.596 70.9501 355.996C71.8781 356.396 72.6461 356.972 73.2541 357.724C73.8701 358.468 74.2941 359.372 74.5261 360.436L71.8381 360.892C71.7181 360.244 71.4621 359.688 71.0701 359.224C70.6781 358.752 70.1981 358.392 69.6301 358.144C69.0621 357.888 68.4461 357.756 67.7821 357.748C67.1421 357.732 66.5541 357.828 66.0181 358.036C65.4901 358.244 65.0661 358.536 64.7461 358.912C64.4341 359.288 64.2781 359.72 64.2781 360.208C64.2781 360.688 64.4181 361.076 64.6981 361.372C64.9781 361.668 65.3221 361.904 65.7301 362.08C66.1461 362.248 66.5581 362.388 66.9661 362.5L70.1581 363.4C70.5581 363.512 71.0101 363.664 71.5141 363.856C72.0261 364.04 72.5181 364.3 72.9901 364.636C73.4701 364.972 73.8661 365.42 74.1781 365.98C74.4901 366.532 74.6461 367.228 74.6461 368.068C74.6461 368.94 74.4701 369.708 74.1181 370.372C73.7661 371.028 73.2821 371.58 72.6661 372.028C72.0581 372.468 71.3541 372.8 70.5541 373.024C69.7541 373.248 68.9101 373.36 68.0221 373.36ZM84.6194 373C83.8034 373.16 83.0034 373.228 82.2194 373.204C81.4354 373.18 80.7354 373.028 80.1194 372.748C79.5034 372.468 79.0394 372.028 78.7274 371.428C78.4474 370.892 78.2954 370.348 78.2714 369.796C78.2554 369.236 78.2474 368.604 78.2474 367.9V356.44H80.7674V367.78C80.7674 368.3 80.7714 368.752 80.7794 369.136C80.7954 369.52 80.8794 369.844 81.0314 370.108C81.3194 370.604 81.7754 370.888 82.3994 370.96C83.0314 371.024 83.7714 370.996 84.6194 370.876V373ZM75.7634 362.056V360.04H84.6194V362.056H75.7634ZM92.2359 373.348C91.3399 373.348 90.5879 373.204 89.9799 372.916C89.3719 372.628 88.8759 372.252 88.4919 371.788C88.1159 371.316 87.8279 370.804 87.6279 370.252C87.4279 369.7 87.2919 369.16 87.2199 368.632C87.1479 368.104 87.1119 367.64 87.1119 367.24V360.04H89.6559V366.412C89.6559 366.916 89.6959 367.436 89.7759 367.972C89.8639 368.5 90.0239 368.992 90.2559 369.448C90.4959 369.904 90.8279 370.272 91.2519 370.552C91.6839 370.832 92.2439 370.972 92.9319 370.972C93.3799 370.972 93.8039 370.9 94.2039 370.756C94.6039 370.604 94.9519 370.364 95.2479 370.036C95.5519 369.708 95.7879 369.276 95.9559 368.74C96.1319 368.204 96.2199 367.552 96.2199 366.784L97.7799 367.372C97.7799 368.548 97.5599 369.588 97.1199 370.492C96.6799 371.388 96.0479 372.088 95.2239 372.592C94.3999 373.096 93.4039 373.348 92.2359 373.348ZM96.5199 373V369.256H96.2199V360.04H98.7519V373H96.5199ZM107.266 373.36C106.058 373.36 105.014 373.06 104.134 372.46C103.262 371.86 102.586 371.044 102.106 370.012C101.634 368.972 101.398 367.804 101.398 366.508C101.398 365.204 101.638 364.04 102.118 363.016C102.598 361.984 103.278 361.172 104.158 360.58C105.046 359.98 106.098 359.68 107.314 359.68C108.538 359.68 109.566 359.98 110.398 360.58C111.238 361.172 111.87 361.984 112.294 363.016C112.726 364.048 112.942 365.212 112.942 366.508C112.942 367.804 112.726 368.968 112.294 370C111.862 371.032 111.226 371.852 110.386 372.46C109.546 373.06 108.506 373.36 107.266 373.36ZM107.614 371.092C108.438 371.092 109.11 370.896 109.63 370.504C110.15 370.112 110.53 369.572 110.77 368.884C111.01 368.196 111.13 367.404 111.13 366.508C111.13 365.612 111.006 364.82 110.758 364.132C110.518 363.444 110.142 362.908 109.63 362.524C109.126 362.14 108.482 361.948 107.698 361.948C106.866 361.948 106.182 362.152 105.646 362.56C105.11 362.968 104.71 363.516 104.446 364.204C104.19 364.892 104.062 365.66 104.062 366.508C104.062 367.364 104.19 368.14 104.446 368.836C104.71 369.524 105.102 370.072 105.622 370.48C106.15 370.888 106.814 371.092 107.614 371.092ZM111.13 373V363.676H110.842V355.72H113.362V373H111.13ZM122.467 373.36C121.179 373.36 120.047 373.08 119.071 372.52C118.103 371.952 117.347 371.164 116.803 370.156C116.267 369.14 115.999 367.964 115.999 366.628C115.999 365.212 116.263 363.984 116.791 362.944C117.327 361.904 118.071 361.1 119.023 360.532C119.975 359.964 121.083 359.68 122.347 359.68C123.667 359.68 124.791 359.988 125.719 360.604C126.647 361.212 127.339 362.08 127.795 363.208C128.259 364.336 128.443 365.676 128.347 367.228H125.839V366.316C125.823 364.812 125.535 363.7 124.975 362.98C124.423 362.26 123.579 361.9 122.443 361.9C121.187 361.9 120.243 362.296 119.611 363.088C118.979 363.88 118.663 365.024 118.663 366.52C118.663 367.944 118.979 369.048 119.611 369.832C120.243 370.608 121.155 370.996 122.347 370.996C123.131 370.996 123.807 370.82 124.375 370.468C124.951 370.108 125.399 369.596 125.719 368.932L128.179 369.712C127.675 370.872 126.911 371.772 125.887 372.412C124.863 373.044 123.723 373.36 122.467 373.36ZM117.847 367.228V365.272H127.099V367.228H117.847ZM139.784 373V366.628C139.784 366.124 139.74 365.608 139.652 365.08C139.572 364.544 139.412 364.048 139.172 363.592C138.94 363.136 138.608 362.768 138.176 362.488C137.752 362.208 137.196 362.068 136.508 362.068C136.06 362.068 135.636 362.144 135.236 362.296C134.836 362.44 134.484 362.676 134.18 363.004C133.884 363.332 133.648 363.764 133.472 364.3C133.304 364.836 133.22 365.488 133.22 366.256L131.66 365.668C131.66 364.492 131.88 363.456 132.32 362.56C132.76 361.656 133.392 360.952 134.216 360.448C135.04 359.944 136.036 359.692 137.204 359.692C138.1 359.692 138.852 359.836 139.46 360.124C140.068 360.412 140.56 360.792 140.936 361.264C141.32 361.728 141.612 362.236 141.812 362.788C142.012 363.34 142.148 363.88 142.22 364.408C142.292 364.936 142.328 365.4 142.328 365.8V373H139.784ZM130.676 373V360.04H132.92V363.784H133.22V373H130.676ZM152.869 373C152.053 373.16 151.253 373.228 150.469 373.204C149.685 373.18 148.985 373.028 148.369 372.748C147.753 372.468 147.289 372.028 146.977 371.428C146.697 370.892 146.545 370.348 146.521 369.796C146.505 369.236 146.497 368.604 146.497 367.9V356.44H149.017V367.78C149.017 368.3 149.021 368.752 149.029 369.136C149.045 369.52 149.129 369.844 149.281 370.108C149.569 370.604 150.025 370.888 150.649 370.96C151.281 371.024 152.021 370.996 152.869 370.876V373ZM144.013 362.056V360.04H152.869V362.056H144.013Z" fill="#1AA8DB"/>
<path d="M62.0159 406V388.72H72.2519V391.228H64.5239V396.1H70.8119V398.62H64.5239V406H62.0159ZM79.2984 406.348C78.4024 406.348 77.6504 406.204 77.0424 405.916C76.4344 405.628 75.9384 405.252 75.5544 404.788C75.1784 404.316 74.8904 403.804 74.6904 403.252C74.4904 402.7 74.3544 402.16 74.2824 401.632C74.2104 401.104 74.1744 400.64 74.1744 400.24V393.04H76.7184V399.412C76.7184 399.916 76.7584 400.436 76.8384 400.972C76.9264 401.5 77.0864 401.992 77.3184 402.448C77.5584 402.904 77.8904 403.272 78.3144 403.552C78.7464 403.832 79.3064 403.972 79.9944 403.972C80.4424 403.972 80.8664 403.9 81.2664 403.756C81.6664 403.604 82.0144 403.364 82.3104 403.036C82.6144 402.708 82.8504 402.276 83.0184 401.74C83.1944 401.204 83.2824 400.552 83.2824 399.784L84.8424 400.372C84.8424 401.548 84.6224 402.588 84.1824 403.492C83.7424 404.388 83.1104 405.088 82.2864 405.592C81.4624 406.096 80.4664 406.348 79.2984 406.348ZM83.5824 406V402.256H83.2824V393.04H85.8144V406H83.5824ZM89.42 406V388.36H91.928V406H89.42ZM95.7716 406V388.36H98.2796V406H95.7716ZM112.952 406.36C111.712 406.36 110.592 406.148 109.592 405.724C108.6 405.292 107.78 404.68 107.132 403.888C106.492 403.088 106.076 402.14 105.884 401.044L108.5 400.648C108.764 401.704 109.316 402.528 110.156 403.12C110.996 403.704 111.976 403.996 113.096 403.996C113.792 403.996 114.432 403.888 115.016 403.672C115.6 403.448 116.068 403.132 116.42 402.724C116.78 402.308 116.96 401.812 116.96 401.236C116.96 400.924 116.904 400.648 116.792 400.408C116.688 400.168 116.54 399.96 116.348 399.784C116.164 399.6 115.936 399.444 115.664 399.316C115.4 399.18 115.108 399.064 114.788 398.968L110.36 397.66C109.928 397.532 109.488 397.368 109.04 397.168C108.592 396.96 108.18 396.692 107.804 396.364C107.436 396.028 107.136 395.616 106.904 395.128C106.672 394.632 106.556 394.032 106.556 393.328C106.556 392.264 106.828 391.364 107.372 390.628C107.924 389.884 108.668 389.324 109.604 388.948C110.54 388.564 111.588 388.372 112.748 388.372C113.916 388.388 114.96 388.596 115.88 388.996C116.808 389.396 117.576 389.972 118.184 390.724C118.8 391.468 119.224 392.372 119.456 393.436L116.768 393.892C116.648 393.244 116.392 392.688 116 392.224C115.608 391.752 115.128 391.392 114.56 391.144C113.992 390.888 113.376 390.756 112.712 390.748C112.072 390.732 111.484 390.828 110.948 391.036C110.42 391.244 109.996 391.536 109.676 391.912C109.364 392.288 109.208 392.72 109.208 393.208C109.208 393.688 109.348 394.076 109.628 394.372C109.908 394.668 110.252 394.904 110.66 395.08C111.076 395.248 111.488 395.388 111.896 395.5L115.088 396.4C115.488 396.512 115.94 396.664 116.444 396.856C116.956 397.04 117.448 397.3 117.92 397.636C118.4 397.972 118.796 398.42 119.108 398.98C119.42 399.532 119.576 400.228 119.576 401.068C119.576 401.94 119.4 402.708 119.048 403.372C118.696 404.028 118.212 404.58 117.596 405.028C116.988 405.468 116.284 405.8 115.484 406.024C114.684 406.248 113.84 406.36 112.952 406.36ZM129.549 406C128.733 406.16 127.933 406.228 127.149 406.204C126.365 406.18 125.665 406.028 125.049 405.748C124.433 405.468 123.969 405.028 123.657 404.428C123.377 403.892 123.225 403.348 123.201 402.796C123.185 402.236 123.177 401.604 123.177 400.9V389.44H125.697V400.78C125.697 401.3 125.701 401.752 125.709 402.136C125.725 402.52 125.809 402.844 125.961 403.108C126.249 403.604 126.705 403.888 127.329 403.96C127.961 404.024 128.701 403.996 129.549 403.876V406ZM120.693 395.056V393.04H129.549V395.056H120.693ZM135.942 406.36C134.982 406.36 134.178 406.184 133.53 405.832C132.882 405.472 132.39 405 132.054 404.416C131.726 403.824 131.562 403.176 131.562 402.472C131.562 401.816 131.678 401.24 131.91 400.744C132.142 400.248 132.486 399.828 132.942 399.484C133.398 399.132 133.958 398.848 134.622 398.632C135.198 398.464 135.85 398.316 136.578 398.188C137.306 398.06 138.07 397.94 138.87 397.828C139.678 397.716 140.478 397.604 141.27 397.492L140.358 397.996C140.374 396.98 140.158 396.228 139.71 395.74C139.27 395.244 138.51 394.996 137.43 394.996C136.75 394.996 136.126 395.156 135.558 395.476C134.99 395.788 134.594 396.308 134.37 397.036L132.03 396.316C132.35 395.204 132.958 394.32 133.854 393.664C134.758 393.008 135.958 392.68 137.454 392.68C138.614 392.68 139.622 392.88 140.478 393.28C141.342 393.672 141.974 394.296 142.374 395.152C142.582 395.576 142.71 396.024 142.758 396.496C142.806 396.968 142.83 397.476 142.83 398.02V406H140.61V403.036L141.042 403.42C140.506 404.412 139.822 405.152 138.99 405.64C138.166 406.12 137.15 406.36 135.942 406.36ZM136.386 404.308C137.098 404.308 137.71 404.184 138.222 403.936C138.734 403.68 139.146 403.356 139.458 402.964C139.77 402.572 139.974 402.164 140.07 401.74C140.206 401.356 140.282 400.924 140.298 400.444C140.322 399.964 140.334 399.58 140.334 399.292L141.15 399.592C140.358 399.712 139.638 399.82 138.99 399.916C138.342 400.012 137.754 400.108 137.226 400.204C136.706 400.292 136.242 400.4 135.834 400.528C135.49 400.648 135.182 400.792 134.91 400.96C134.646 401.128 134.434 401.332 134.274 401.572C134.122 401.812 134.046 402.104 134.046 402.448C134.046 402.784 134.13 403.096 134.298 403.384C134.466 403.664 134.722 403.888 135.066 404.056C135.41 404.224 135.85 404.308 136.386 404.308ZM151.49 406.36C150.162 406.36 149.034 406.064 148.106 405.472C147.178 404.88 146.466 404.068 145.97 403.036C145.482 402.004 145.234 400.832 145.226 399.52C145.234 398.184 145.49 397.004 145.994 395.98C146.498 394.948 147.218 394.14 148.154 393.556C149.09 392.972 150.214 392.68 151.526 392.68C152.942 392.68 154.15 393.032 155.15 393.736C156.158 394.44 156.822 395.404 157.142 396.628L154.646 397.348C154.398 396.62 153.99 396.056 153.422 395.656C152.862 395.248 152.218 395.044 151.49 395.044C150.666 395.044 149.99 395.24 149.462 395.632C148.934 396.016 148.542 396.544 148.286 397.216C148.03 397.888 147.898 398.656 147.89 399.52C147.898 400.856 148.202 401.936 148.802 402.76C149.41 403.584 150.306 403.996 151.49 403.996C152.298 403.996 152.95 403.812 153.446 403.444C153.95 403.068 154.334 402.532 154.598 401.836L157.142 402.436C156.718 403.7 156.018 404.672 155.042 405.352C154.066 406.024 152.882 406.36 151.49 406.36ZM159.574 406L159.586 388.72H162.13V399.28L167.218 393.04H170.41L165.034 399.52L170.962 406H167.554L162.13 399.76V406H159.574ZM176.977 406V388.72H182.389C182.549 388.72 182.845 388.724 183.277 388.732C183.717 388.74 184.137 388.772 184.537 388.828C185.889 388.996 187.025 389.48 187.945 390.28C188.873 391.08 189.573 392.096 190.045 393.328C190.517 394.552 190.753 395.896 190.753 397.36C190.753 398.832 190.517 400.184 190.045 401.416C189.573 402.64 188.873 403.652 187.945 404.452C187.025 405.244 185.889 405.724 184.537 405.892C184.137 405.948 183.717 405.98 183.277 405.988C182.845 405.996 182.549 406 182.389 406H176.977ZM179.545 403.612H182.389C182.661 403.612 182.985 403.604 183.361 403.588C183.737 403.572 184.069 403.54 184.357 403.492C185.237 403.324 185.949 402.944 186.493 402.352C187.045 401.752 187.449 401.016 187.705 400.144C187.961 399.272 188.089 398.344 188.089 397.36C188.089 396.344 187.957 395.404 187.693 394.54C187.429 393.668 187.021 392.94 186.469 392.356C185.925 391.764 185.221 391.388 184.357 391.228C184.069 391.172 183.733 391.14 183.349 391.132C182.973 391.116 182.653 391.108 182.389 391.108H179.545V403.612ZM199.295 406.36C198.007 406.36 196.875 406.08 195.899 405.52C194.931 404.952 194.175 404.164 193.631 403.156C193.095 402.14 192.827 400.964 192.827 399.628C192.827 398.212 193.091 396.984 193.619 395.944C194.155 394.904 194.899 394.1 195.851 393.532C196.803 392.964 197.911 392.68 199.175 392.68C200.495 392.68 201.619 392.988 202.547 393.604C203.475 394.212 204.167 395.08 204.623 396.208C205.087 397.336 205.271 398.676 205.175 400.228H202.667V399.316C202.651 397.812 202.363 396.7 201.803 395.98C201.251 395.26 200.407 394.9 199.271 394.9C198.015 394.9 197.071 395.296 196.439 396.088C195.807 396.88 195.491 398.024 195.491 399.52C195.491 400.944 195.807 402.048 196.439 402.832C197.071 403.608 197.983 403.996 199.175 403.996C199.959 403.996 200.635 403.82 201.203 403.468C201.779 403.108 202.227 402.596 202.547 401.932L205.007 402.712C204.503 403.872 203.739 404.772 202.715 405.412C201.691 406.044 200.551 406.36 199.295 406.36ZM194.675 400.228V398.272H203.927V400.228H194.675ZM210.903 406L206.199 393.04H208.731L212.175 402.856L215.619 393.04H218.151L213.447 406H210.903ZM225.592 406.36C224.304 406.36 223.172 406.08 222.196 405.52C221.228 404.952 220.472 404.164 219.928 403.156C219.392 402.14 219.124 400.964 219.124 399.628C219.124 398.212 219.388 396.984 219.916 395.944C220.452 394.904 221.196 394.1 222.148 393.532C223.1 392.964 224.208 392.68 225.472 392.68C226.792 392.68 227.916 392.988 228.844 393.604C229.772 394.212 230.464 395.08 230.92 396.208C231.384 397.336 231.568 398.676 231.472 400.228H228.964V399.316C228.948 397.812 228.66 396.7 228.1 395.98C227.548 395.26 226.704 394.9 225.568 394.9C224.312 394.9 223.368 395.296 222.736 396.088C222.104 396.88 221.788 398.024 221.788 399.52C221.788 400.944 222.104 402.048 222.736 402.832C223.368 403.608 224.28 403.996 225.472 403.996C226.256 403.996 226.932 403.82 227.5 403.468C228.076 403.108 228.524 402.596 228.844 401.932L231.304 402.712C230.8 403.872 230.036 404.772 229.012 405.412C227.988 406.044 226.848 406.36 225.592 406.36ZM220.972 400.228V398.272H230.224V400.228H220.972ZM234.404 406V388.36H236.912V406H234.404ZM246.144 406.36C244.848 406.36 243.724 406.068 242.772 405.484C241.82 404.9 241.084 404.096 240.564 403.072C240.052 402.04 239.796 400.852 239.796 399.508C239.796 398.156 240.06 396.968 240.588 395.944C241.116 394.912 241.856 394.112 242.808 393.544C243.76 392.968 244.872 392.68 246.144 392.68C247.44 392.68 248.564 392.972 249.516 393.556C250.468 394.14 251.204 394.944 251.724 395.968C252.244 396.992 252.504 398.172 252.504 399.508C252.504 400.86 252.24 402.052 251.712 403.084C251.192 404.108 250.456 404.912 249.504 405.496C248.552 406.072 247.432 406.36 246.144 406.36ZM246.144 403.996C247.384 403.996 248.308 403.58 248.916 402.748C249.532 401.908 249.84 400.828 249.84 399.508C249.84 398.156 249.528 397.076 248.904 396.268C248.288 395.452 247.368 395.044 246.144 395.044C245.304 395.044 244.612 395.236 244.068 395.62C243.524 395.996 243.12 396.52 242.856 397.192C242.592 397.856 242.46 398.628 242.46 399.508C242.46 400.868 242.772 401.956 243.396 402.772C244.02 403.588 244.936 403.996 246.144 403.996ZM261.225 406.36C259.985 406.36 258.945 406.06 258.105 405.46C257.265 404.852 256.629 404.032 256.197 403C255.765 401.968 255.549 400.804 255.549 399.508C255.549 398.212 255.761 397.048 256.185 396.016C256.617 394.984 257.249 394.172 258.081 393.58C258.921 392.98 259.953 392.68 261.177 392.68C262.393 392.68 263.441 392.98 264.321 393.58C265.209 394.172 265.893 394.984 266.373 396.016C266.853 397.04 267.093 398.204 267.093 399.508C267.093 400.804 266.853 401.972 266.373 403.012C265.901 404.044 265.225 404.86 264.345 405.46C263.473 406.06 262.433 406.36 261.225 406.36ZM255.129 411.76V393.04H257.361V402.364H257.649V411.76H255.129ZM260.877 404.092C261.677 404.092 262.337 403.888 262.857 403.48C263.385 403.072 263.777 402.524 264.033 401.836C264.297 401.14 264.429 400.364 264.429 399.508C264.429 398.66 264.297 397.892 264.033 397.204C263.777 396.516 263.381 395.968 262.845 395.56C262.309 395.152 261.625 394.948 260.793 394.948C260.009 394.948 259.361 395.14 258.849 395.524C258.345 395.908 257.969 396.444 257.721 397.132C257.481 397.82 257.361 398.612 257.361 399.508C257.361 400.404 257.481 401.196 257.721 401.884C257.961 402.572 258.341 403.112 258.861 403.504C259.381 403.896 260.053 404.092 260.877 404.092ZM275.491 406.36C274.203 406.36 273.071 406.08 272.095 405.52C271.127 404.952 270.371 404.164 269.826 403.156C269.291 402.14 269.023 400.964 269.023 399.628C269.023 398.212 269.287 396.984 269.815 395.944C270.351 394.904 271.095 394.1 272.047 393.532C272.999 392.964 274.107 392.68 275.371 392.68C276.691 392.68 277.815 392.988 278.743 393.604C279.671 394.212 280.363 395.08 280.819 396.208C281.283 397.336 281.467 398.676 281.371 400.228H278.863V399.316C278.847 397.812 278.559 396.7 277.999 395.98C277.447 395.26 276.603 394.9 275.467 394.9C274.211 394.9 273.267 395.296 272.635 396.088C272.003 396.88 271.687 398.024 271.687 399.52C271.687 400.944 272.003 402.048 272.635 402.832C273.267 403.608 274.179 403.996 275.371 403.996C276.155 403.996 276.831 403.82 277.399 403.468C277.975 403.108 278.423 402.596 278.743 401.932L281.203 402.712C280.699 403.872 279.935 404.772 278.911 405.412C277.887 406.044 276.747 406.36 275.491 406.36ZM270.871 400.228V398.272H280.122V400.228H270.871ZM284.063 406V393.04H286.295V396.184L285.983 395.776C286.143 395.36 286.351 394.98 286.607 394.636C286.863 394.284 287.159 393.996 287.495 393.772C287.823 393.532 288.187 393.348 288.587 393.22C288.995 393.084 289.411 393.004 289.835 392.98C290.259 392.948 290.667 392.968 291.059 393.04V395.392C290.635 395.28 290.163 395.248 289.643 395.296C289.131 395.344 288.659 395.508 288.227 395.788C287.819 396.052 287.495 396.372 287.255 396.748C287.023 397.124 286.855 397.544 286.751 398.008C286.647 398.464 286.595 398.948 286.595 399.46V406H284.063Z" fill="#FF006A"/>
<path d="M68.568 439.36C67.216 439.36 66.02 439.084 64.98 438.532C63.948 437.972 63.14 437.192 62.556 436.192C61.972 435.184 61.68 434 61.68 432.64V421.732L64.224 421.72V432.508C64.224 433.244 64.348 433.892 64.596 434.452C64.844 435.012 65.176 435.48 65.592 435.856C66.008 436.232 66.472 436.516 66.984 436.708C67.504 436.9 68.032 436.996 68.568 436.996C69.112 436.996 69.64 436.9 70.152 436.708C70.672 436.508 71.14 436.22 71.556 435.844C71.972 435.468 72.3 435 72.54 434.44C72.788 433.88 72.912 433.236 72.912 432.508V421.72H75.456V432.64C75.456 433.992 75.164 435.172 74.58 436.18C73.996 437.188 73.184 437.972 72.144 438.532C71.112 439.084 69.92 439.36 68.568 439.36ZM79.0528 439V421.72H81.5608V439H79.0528ZM89.5324 421.72H92.0644L87.4564 439H84.9244L89.5324 421.72ZM102.084 439.36C100.732 439.36 99.5356 439.084 98.4956 438.532C97.4636 437.972 96.6556 437.192 96.0716 436.192C95.4876 435.184 95.1956 434 95.1956 432.64V421.732L97.7396 421.72V432.508C97.7396 433.244 97.8636 433.892 98.1116 434.452C98.3596 435.012 98.6916 435.48 99.1076 435.856C99.5236 436.232 99.9876 436.516 100.5 436.708C101.02 436.9 101.548 436.996 102.084 436.996C102.628 436.996 103.156 436.9 103.668 436.708C104.188 436.508 104.656 436.22 105.072 435.844C105.488 435.468 105.816 435 106.056 434.44C106.304 433.88 106.428 433.236 106.428 432.508V421.72H108.972V432.64C108.972 433.992 108.68 435.172 108.096 436.18C107.512 437.188 106.7 437.972 105.66 438.532C104.628 439.084 103.436 439.36 102.084 439.36ZM110.888 439L116.78 430.252L111.044 421.72H114.116L118.328 428.128L122.516 421.72H125.6L119.864 430.252L125.744 439H122.672L118.328 432.388L113.972 439H110.888ZM132.461 439V421.72H137.873C138.033 421.72 138.329 421.724 138.761 421.732C139.201 421.74 139.621 421.772 140.021 421.828C141.373 421.996 142.509 422.48 143.429 423.28C144.357 424.08 145.057 425.096 145.529 426.328C146.001 427.552 146.237 428.896 146.237 430.36C146.237 431.832 146.001 433.184 145.529 434.416C145.057 435.64 144.357 436.652 143.429 437.452C142.509 438.244 141.373 438.724 140.021 438.892C139.621 438.948 139.201 438.98 138.761 438.988C138.329 438.996 138.033 439 137.873 439H132.461ZM135.029 436.612H137.873C138.145 436.612 138.469 436.604 138.845 436.588C139.221 436.572 139.553 436.54 139.841 436.492C140.721 436.324 141.433 435.944 141.977 435.352C142.529 434.752 142.933 434.016 143.189 433.144C143.445 432.272 143.573 431.344 143.573 430.36C143.573 429.344 143.441 428.404 143.177 427.54C142.913 426.668 142.505 425.94 141.953 425.356C141.409 424.764 140.705 424.388 139.841 424.228C139.553 424.172 139.217 424.14 138.833 424.132C138.457 424.116 138.137 424.108 137.873 424.108H135.029V436.612ZM154.78 439.36C153.492 439.36 152.36 439.08 151.384 438.52C150.416 437.952 149.66 437.164 149.116 436.156C148.58 435.14 148.312 433.964 148.312 432.628C148.312 431.212 148.576 429.984 149.104 428.944C149.64 427.904 150.384 427.1 151.336 426.532C152.288 425.964 153.396 425.68 154.66 425.68C155.98 425.68 157.104 425.988 158.032 426.604C158.96 427.212 159.652 428.08 160.108 429.208C160.572 430.336 160.756 431.676 160.66 433.228H158.152V432.316C158.136 430.812 157.848 429.7 157.288 428.98C156.736 428.26 155.892 427.9 154.756 427.9C153.5 427.9 152.556 428.296 151.924 429.088C151.292 429.88 150.976 431.024 150.976 432.52C150.976 433.944 151.292 435.048 151.924 435.832C152.556 436.608 153.468 436.996 154.66 436.996C155.444 436.996 156.12 436.82 156.688 436.468C157.264 436.108 157.712 435.596 158.032 434.932L160.492 435.712C159.988 436.872 159.224 437.772 158.2 438.412C157.176 439.044 156.036 439.36 154.78 439.36ZM150.16 433.228V431.272H159.412V433.228H150.16ZM168.308 439.348C166.732 439.348 165.448 439 164.456 438.304C163.464 437.608 162.856 436.628 162.632 435.364L165.2 434.968C165.36 435.64 165.728 436.172 166.304 436.564C166.888 436.948 167.612 437.14 168.476 437.14C169.26 437.14 169.872 436.98 170.312 436.66C170.76 436.34 170.984 435.9 170.984 435.34C170.984 435.012 170.904 434.748 170.744 434.548C170.592 434.34 170.268 434.144 169.772 433.96C169.276 433.776 168.52 433.548 167.504 433.276C166.392 432.988 165.508 432.68 164.852 432.352C164.204 432.016 163.74 431.628 163.46 431.188C163.188 430.74 163.052 430.2 163.052 429.568C163.052 428.784 163.26 428.1 163.676 427.516C164.092 426.932 164.676 426.48 165.428 426.16C166.188 425.84 167.076 425.68 168.092 425.68C169.084 425.68 169.968 425.836 170.744 426.148C171.52 426.46 172.148 426.904 172.628 427.48C173.108 428.048 173.396 428.716 173.492 429.484L170.924 429.952C170.836 429.328 170.544 428.836 170.048 428.476C169.552 428.116 168.908 427.92 168.116 427.888C167.356 427.856 166.74 427.984 166.268 428.272C165.796 428.552 165.56 428.94 165.56 429.436C165.56 429.724 165.648 429.968 165.824 430.168C166.008 430.368 166.36 430.56 166.88 430.744C167.4 430.928 168.168 431.148 169.184 431.404C170.272 431.684 171.136 431.996 171.776 432.34C172.416 432.676 172.872 433.08 173.144 433.552C173.424 434.016 173.564 434.58 173.564 435.244C173.564 436.524 173.096 437.528 172.16 438.256C171.232 438.984 169.948 439.348 168.308 439.348ZM176.459 423.916V421.48H178.967V423.916H176.459ZM176.459 439V426.04H178.967V439H176.459ZM187.911 445.12C187.215 445.12 186.539 445.012 185.883 444.796C185.235 444.58 184.643 444.26 184.107 443.836C183.571 443.42 183.127 442.904 182.775 442.288L185.091 441.112C185.371 441.664 185.771 442.068 186.291 442.324C186.811 442.58 187.359 442.708 187.935 442.708C188.647 442.708 189.255 442.58 189.759 442.324C190.263 442.076 190.643 441.7 190.899 441.196C191.163 440.692 191.291 440.068 191.283 439.324V435.7H191.583V426.04H193.803V439.348C193.803 439.692 193.791 440.02 193.767 440.332C193.743 440.644 193.699 440.956 193.635 441.268C193.451 442.14 193.099 442.86 192.579 443.428C192.067 443.996 191.411 444.42 190.611 444.7C189.819 444.98 188.919 445.12 187.911 445.12ZM187.719 439.36C186.511 439.36 185.467 439.06 184.587 438.46C183.715 437.86 183.039 437.044 182.559 436.012C182.087 434.972 181.851 433.804 181.851 432.508C181.851 431.204 182.091 430.04 182.571 429.016C183.051 427.984 183.731 427.172 184.611 426.58C185.499 425.98 186.551 425.68 187.767 425.68C188.991 425.68 190.019 425.98 190.851 426.58C191.691 427.172 192.323 427.984 192.747 429.016C193.179 430.048 193.395 431.212 193.395 432.508C193.395 433.804 193.179 434.968 192.747 436C192.315 437.032 191.679 437.852 190.839 438.46C189.999 439.06 188.959 439.36 187.719 439.36ZM188.067 437.092C188.891 437.092 189.563 436.896 190.083 436.504C190.603 436.112 190.983 435.572 191.223 434.884C191.463 434.196 191.583 433.404 191.583 432.508C191.583 431.612 191.459 430.82 191.211 430.132C190.971 429.444 190.595 428.908 190.083 428.524C189.579 428.14 188.935 427.948 188.151 427.948C187.319 427.948 186.635 428.152 186.099 428.56C185.563 428.968 185.163 429.516 184.899 430.204C184.643 430.892 184.515 431.66 184.515 432.508C184.515 433.364 184.643 434.14 184.899 434.836C185.163 435.524 185.555 436.072 186.075 436.48C186.603 436.888 187.267 437.092 188.067 437.092ZM206.268 439V432.628C206.268 432.124 206.224 431.608 206.136 431.08C206.056 430.544 205.896 430.048 205.656 429.592C205.424 429.136 205.092 428.768 204.66 428.488C204.236 428.208 203.68 428.068 202.992 428.068C202.544 428.068 202.12 428.144 201.72 428.296C201.32 428.44 200.968 428.676 200.664 429.004C200.368 429.332 200.132 429.764 199.956 430.3C199.788 430.836 199.704 431.488 199.704 432.256L198.144 431.668C198.144 430.492 198.364 429.456 198.804 428.56C199.244 427.656 199.876 426.952 200.7 426.448C201.524 425.944 202.52 425.692 203.688 425.692C204.584 425.692 205.336 425.836 205.944 426.124C206.552 426.412 207.044 426.792 207.42 427.264C207.804 427.728 208.096 428.236 208.296 428.788C208.496 429.34 208.632 429.88 208.704 430.408C208.776 430.936 208.812 431.4 208.812 431.8V439H206.268ZM197.16 439V426.04H199.404V429.784H199.704V439H197.16ZM217.522 439.36C216.234 439.36 215.102 439.08 214.126 438.52C213.158 437.952 212.402 437.164 211.858 436.156C211.322 435.14 211.054 433.964 211.054 432.628C211.054 431.212 211.318 429.984 211.846 428.944C212.382 427.904 213.126 427.1 214.078 426.532C215.03 425.964 216.138 425.68 217.402 425.68C218.722 425.68 219.846 425.988 220.774 426.604C221.702 427.212 222.394 428.08 222.85 429.208C223.314 430.336 223.498 431.676 223.402 433.228H220.894V432.316C220.878 430.812 220.59 429.7 220.03 428.98C219.478 428.26 218.634 427.9 217.498 427.9C216.242 427.9 215.298 428.296 214.666 429.088C214.034 429.88 213.718 431.024 213.718 432.52C213.718 433.944 214.034 435.048 214.666 435.832C215.298 436.608 216.21 436.996 217.402 436.996C218.186 436.996 218.862 436.82 219.43 436.468C220.006 436.108 220.454 435.596 220.774 434.932L223.234 435.712C222.73 436.872 221.966 437.772 220.942 438.412C219.918 439.044 218.778 439.36 217.522 439.36ZM212.902 433.228V431.272H222.154V433.228H212.902ZM226.094 439V426.04H228.326V429.184L228.014 428.776C228.174 428.36 228.382 427.98 228.638 427.636C228.894 427.284 229.19 426.996 229.526 426.772C229.854 426.532 230.218 426.348 230.618 426.22C231.026 426.084 231.442 426.004 231.866 425.98C232.29 425.948 232.698 425.968 233.09 426.04V428.392C232.666 428.28 232.194 428.248 231.674 428.296C231.162 428.344 230.69 428.508 230.258 428.788C229.85 429.052 229.526 429.372 229.286 429.748C229.054 430.124 228.886 430.544 228.782 431.008C228.678 431.464 228.626 431.948 228.626 432.46V439H226.094Z" fill="#0DBC79"/>
<path d="M862.5 219C862.5 215.962 864.962 213.5 868 213.5H1434C1437.04 213.5 1439.5 215.962 1439.5 219V499.5H862.5V219Z" fill="#121212" stroke="#6E7D9A"/>
<path d="M862.5 219C862.5 215.962 864.962 213.5 868 213.5H996.5V499.5H862.5V219Z" stroke="#6E7D9A"/>
<path d="M862.5 219C862.5 215.962 864.962 213.5 868 213.5H1434C1437.04 213.5 1439.5 215.962 1439.5 219V231.5H862.5V219Z" fill="#121212" stroke="#6E7D9A"/>
<rect x="1014" y="218" width="275" height="9" rx="2" fill="#1A1F25"/>
<rect x="872" y="242" width="9" height="9" rx="2" fill="#5C616A"/>
<rect x="886" y="242" width="92" height="9" rx="2" fill="#5C616A"/>
<rect x="872" y="256" width="9" height="9" rx="2" fill="#5C616A"/>
<rect x="886" y="256" width="64" height="9" rx="2" fill="#5C616A"/>
<rect x="872" y="270" width="9" height="9" rx="2" fill="#FDFD96"/>
<rect x="886" y="270" width="71" height="9" rx="2" fill="#FDFD96"/>
<rect x="872" y="284" width="9" height="9" rx="2" fill="#F5AF17"/>
<rect x="886" y="284" width="48" height="9" rx="2" fill="#F5AF17"/>
<rect x="872" y="298" width="9" height="9" rx="2" fill="#5C616A"/>
<rect x="886" y="298" width="40" height="9" rx="2" fill="#5C616A"/>
<rect x="872" y="312" width="9" height="9" rx="2" fill="#5C616A"/>
<rect x="886" y="312" width="53" height="9" rx="2" fill="#5C616A"/>
<rect x="872" y="326" width="9" height="9" rx="2" fill="#FDFD96"/>
<rect x="886" y="326" width="82" height="9" rx="2" fill="#FDFD96"/>
<rect x="872" y="340" width="9" height="9" rx="2" fill="#FDFD96"/>
<rect x="886" y="340" width="40" height="9" rx="2" fill="#FDFD96"/>
<rect x="872" y="354" width="9" height="9" rx="2" fill="#5C616A"/>
<rect x="886" y="354" width="47" height="9" rx="2" fill="#5C616A"/>
<rect x="872" y="368" width="9" height="9" rx="2" fill="#F5AF17"/>
<rect x="886" y="368" width="60" height="9" rx="2" fill="#F5AF17"/>
<rect x="872" y="382" width="9" height="9" rx="2" fill="#F5AF17"/>
<rect x="886" y="382" width="34" height="9" rx="2" fill="#F5AF17"/>
<rect x="1007" y="242" width="9" height="9" rx="2" fill="#5C616A"/>
<rect x="1021" y="242" width="50" height="9" rx="2" fill="#FF006A"/>
<rect x="1076" y="242" width="50" height="9" rx="2" fill="#D9FFFF"/>
<rect x="1131" y="242" width="50" height="9" rx="2" fill="#517D9A"/>
<rect x="1007" y="242" width="9" height="9" rx="2" fill="#5C616A"/>
<rect x="1021" y="242" width="50" height="9" rx="2" fill="#FF006A"/>
<rect x="1076" y="242" width="50" height="9" rx="2" fill="#D9FFFF"/>
<rect x="1131" y="242" width="50" height="9" rx="2" fill="#517D9A"/>
<rect x="1007" y="254" width="9" height="9" rx="2" fill="#5C616A"/>
<rect x="1021" y="254" width="36" height="9" rx="2" fill="#FF006A"/>
<rect x="1062" y="254" width="59" height="9" rx="2" fill="#D9FFFF"/>
<rect x="1126" y="254" width="27" height="9" rx="2" fill="#517D9A"/>
<rect x="1007" y="266" width="9" height="9" rx="2" fill="#5C616A"/>
<rect x="1021" y="266" width="17" height="9" rx="2" fill="#FF006A"/>
<rect x="1043" y="266" width="35" height="9" rx="2" fill="#D9FFFF"/>
<rect x="1083" y="266" width="20" height="9" rx="2" fill="#517D9A"/>
<rect x="1007" y="278" width="9" height="9" rx="2" fill="#5C616A"/>
<rect x="1021" y="278" width="31" height="9" rx="2" fill="#FF006A"/>
<rect x="1057" y="278" width="37" height="9" rx="2" fill="#D9FFFF"/>
<rect x="1099" y="278" width="41" height="9" rx="2" fill="#517D9A"/>
<rect x="1007" y="290" width="9" height="9" rx="2" fill="#5C616A"/>
<rect x="1021" y="290" width="37" height="9" rx="2" fill="#1AA8DB"/>
<rect x="1063" y="290" width="50" height="9" rx="2" fill="#517D9A"/>
<rect x="1007" y="302" width="9" height="9" rx="2" fill="#5C616A"/>
<rect x="1021" y="302" width="50" height="9" rx="2" fill="#0DBC79"/>
<rect x="1076" y="302" width="50" height="9" rx="2" fill="#D9FFFF"/>
<rect x="1007" y="314" width="9" height="9" rx="2" fill="#5C616A"/>
<rect x="1021" y="314" width="36" height="9" rx="2" fill="#FF006A"/>
<rect x="1062" y="314" width="59" height="9" rx="2" fill="#D9FFFF"/>
<rect x="1126" y="314" width="27" height="9" rx="2" fill="#517D9A"/>
<rect x="1007" y="326" width="9" height="9" rx="2" fill="#5C616A"/>
<rect x="1021" y="326" width="17" height="9" rx="2" fill="#FF006A"/>
<rect x="1043" y="326" width="35" height="9" rx="2" fill="#D9FFFF"/>
<rect x="1083" y="326" width="20" height="9" rx="2" fill="#517D9A"/>
<rect x="1007" y="338" width="9" height="9" rx="2" fill="#5C616A"/>
<rect x="1007" y="350" width="9" height="9" rx="2" fill="#5C616A"/>
<rect x="1021" y="350" width="50" height="9" rx="2" fill="#1AA8DB"/>
<rect x="1076" y="350" width="50" height="9" rx="2" fill="#0DBC79"/>
<rect x="1131" y="350" width="50" height="9" rx="2" fill="#517D9A"/>
<rect x="1007" y="362" width="9" height="9" rx="2" fill="#5C616A"/>
<rect x="1021" y="362" width="31" height="9" rx="2" fill="#FF006A"/>
<rect x="1057" y="362" width="37" height="9" rx="2" fill="#D9FFFF"/>
<rect x="1099" y="362" width="41" height="9" rx="2" fill="#517D9A"/>
<rect x="1007" y="374" width="9" height="9" rx="2" fill="#5C616A"/>
<rect x="1021" y="374" width="41" height="9" rx="2" fill="#FF006A"/>
<rect x="1067" y="374" width="37" height="9" rx="2" fill="#D9FFFF"/>
<rect x="1109" y="374" width="50" height="9" rx="2" fill="#517D9A"/>
<rect x="1007" y="386" width="9" height="9" rx="2" fill="#5C616A"/>
<rect x="1021" y="386" width="31" height="9" rx="2" fill="#FF006A"/>
<rect x="1057" y="386" width="37" height="9" rx="2" fill="#D9FFFF"/>
<rect x="1099" y="386" width="41" height="9" rx="2" fill="#517D9A"/>
<rect x="1007" y="398" width="9" height="9" rx="2" fill="#5C616A"/>
<rect x="1021" y="398" width="37" height="9" rx="2" fill="#1AA8DB"/>
<rect x="1063" y="398" width="50" height="9" rx="2" fill="#517D9A"/>
<rect x="1007" y="410" width="9" height="9" rx="2" fill="#5C616A"/>
<rect x="1021" y="410" width="58" height="9" rx="2" fill="#0DBC79"/>
<rect x="1084" y="410" width="26" height="9" rx="2" fill="#D9FFFF"/>
<rect x="1115" y="410" width="35" height="9" rx="2" fill="#1AA8DB"/>
<rect x="1007" y="422" width="9" height="9" rx="2" fill="#5C616A"/>
<rect x="1021" y="422" width="50" height="9" rx="2" fill="#0DBC79"/>
<rect x="1076" y="422" width="50" height="9" rx="2" fill="#D9FFFF"/>
<rect x="1007" y="434" width="9" height="9" rx="2" fill="#5C616A"/>
<rect x="1021" y="434" width="50" height="9" rx="2" fill="#0DBC79"/>
<rect x="1076" y="434" width="50" height="9" rx="2" fill="#D9FFFF"/>
<rect x="1007" y="446" width="9" height="9" rx="2" fill="#5C616A"/>
<rect x="1007" y="458" width="9" height="9" rx="2" fill="#5C616A"/>
<rect x="1021" y="458" width="31" height="9" rx="2" fill="#FF006A"/>
<rect x="1057" y="458" width="37" height="9" rx="2" fill="#D9FFFF"/>
<rect x="1099" y="458" width="41" height="9" rx="2" fill="#517D9A"/>
<rect x="1007" y="470" width="9" height="9" rx="2" fill="#5C616A"/>
<rect x="1021" y="470" width="37" height="9" rx="2" fill="#1AA8DB"/>
<rect x="1063" y="470" width="50" height="9" rx="2" fill="#517D9A"/>
<rect x="1007" y="482" width="9" height="9" rx="2" fill="#5C616A"/>
<rect x="1021" y="482" width="50" height="9" rx="2" fill="#1AA8DB"/>
<rect x="1076" y="482" width="50" height="9" rx="2" fill="#0DBC79"/>
<rect x="1131" y="482" width="50" height="9" rx="2" fill="#517D9A"/>
<rect x="1007" y="494" width="9" height="9" rx="2" fill="#5C616A"/>
</g>
<rect x="1" y="1" width="1498" height="498" rx="5" stroke="#30363D" stroke-width="2"/>
<defs>
<clipPath id="clip0_1_4">
<rect width="1500" height="500" rx="6" fill="white"/>
</clipPath>
</defs>
</svg>
