<svg width="1500" height="500" viewBox="0 0 1500 500" fill="none" xmlns="http://www.w3.org/2000/svg">
<g clip-path="url(#clip0_1_4)">
<rect width="1500" height="500" rx="6" fill="#0D1117"/>
<path d="M101.818 161H66V67.9091H101.455C111.03 67.9091 119.303 69.7727 126.273 73.5C133.273 77.197 138.667 82.5303 142.455 89.5C146.273 96.4394 148.182 104.758 148.182 114.455C148.182 124.152 146.288 132.485 142.5 139.455C138.712 146.394 133.348 151.727 126.409 155.455C119.47 159.152 111.273 161 101.818 161ZM91.2727 139.545H100.909C105.515 139.545 109.439 138.803 112.682 137.318C115.955 135.833 118.439 133.273 120.136 129.636C121.864 126 122.727 120.939 122.727 114.455C122.727 107.97 121.848 102.909 120.091 99.2727C118.364 95.6364 115.818 93.0758 112.455 91.5909C109.121 90.1061 105.03 89.3636 100.182 89.3636H91.2727V139.545ZM159.875 161V67.9091H185.148V104.273H218.602V67.9091H243.875V161H218.602V124.636H185.148V161H159.875ZM280.057 161H252.784L283.511 67.9091H318.057L348.784 161H321.511L301.148 93.5455H300.42L280.057 161ZM274.966 124.273H326.239V143.182H274.966V124.273ZM438.295 67.9091V161H417.205L383.568 112.091H383.023V161H357.75V67.9091H379.205L412.295 116.636H413.023V67.9091H438.295ZM505.341 67.9091H530.614V127.545C530.614 134.636 528.917 140.773 525.523 145.955C522.159 151.106 517.462 155.091 511.432 157.909C505.402 160.697 498.402 162.091 490.432 162.091C482.402 162.091 475.371 160.697 469.341 157.909C463.311 155.091 458.614 151.106 455.25 145.955C451.917 140.773 450.25 134.636 450.25 127.545V67.9091H475.523V125.364C475.523 128.242 476.159 130.818 477.432 133.091C478.705 135.333 480.462 137.091 482.705 138.364C484.977 139.636 487.553 140.273 490.432 140.273C493.341 140.273 495.917 139.636 498.159 138.364C500.402 137.091 502.159 135.333 503.432 133.091C504.705 130.818 505.341 128.242 505.341 125.364V67.9091ZM592.807 97C592.564 93.9697 591.428 91.6061 589.398 89.9091C587.398 88.2121 584.352 87.3636 580.261 87.3636C577.655 87.3636 575.519 87.6818 573.852 88.3182C572.216 88.9242 571.004 89.7576 570.216 90.8182C569.428 91.8788 569.019 93.0909 568.989 94.4545C568.928 95.5758 569.125 96.5909 569.58 97.5C570.064 98.3788 570.822 99.1818 571.852 99.9091C572.883 100.606 574.201 101.242 575.807 101.818C577.413 102.394 579.322 102.909 581.534 103.364L589.17 105C594.322 106.091 598.731 107.53 602.398 109.318C606.064 111.106 609.064 113.212 611.398 115.636C613.731 118.03 615.443 120.727 616.534 123.727C617.655 126.727 618.231 130 618.261 133.545C618.231 139.667 616.701 144.848 613.67 149.091C610.64 153.333 606.307 156.561 600.67 158.773C595.064 160.985 588.322 162.091 580.443 162.091C572.352 162.091 565.292 160.894 559.261 158.5C553.261 156.106 548.595 152.424 545.261 147.455C541.958 142.455 540.292 136.061 540.261 128.273H564.261C564.413 131.121 565.125 133.515 566.398 135.455C567.67 137.394 569.458 138.864 571.761 139.864C574.095 140.864 576.867 141.364 580.08 141.364C582.777 141.364 585.034 141.03 586.852 140.364C588.67 139.697 590.049 138.773 590.989 137.591C591.928 136.409 592.413 135.061 592.443 133.545C592.413 132.121 591.943 130.879 591.034 129.818C590.155 128.727 588.701 127.758 586.67 126.909C584.64 126.03 581.898 125.212 578.443 124.455L569.17 122.455C560.928 120.667 554.428 117.682 549.67 113.5C544.943 109.288 542.595 103.545 542.625 96.2727C542.595 90.3636 544.17 85.197 547.352 80.7727C550.564 76.3182 555.004 72.8485 560.67 70.3636C566.367 67.8788 572.898 66.6364 580.261 66.6364C587.777 66.6364 594.277 67.8939 599.761 70.4091C605.246 72.9242 609.473 76.4697 612.443 81.0455C615.443 85.5909 616.958 90.9091 616.989 97H592.807ZM627.875 161V67.9091H653.148V104.273H686.602V67.9091H711.875V161H686.602V124.636H653.148V161H627.875ZM152.909 257.818H127.273C127.091 255.697 126.606 253.773 125.818 252.045C125.061 250.318 124 248.833 122.636 247.591C121.303 246.318 119.682 245.348 117.773 244.682C115.864 243.985 113.697 243.636 111.273 243.636C107.03 243.636 103.439 244.667 100.5 246.727C97.5909 248.788 95.3788 251.742 93.8636 255.591C92.3788 259.439 91.6364 264.061 91.6364 269.455C91.6364 275.152 92.3939 279.924 93.9091 283.773C95.4545 287.591 97.6818 290.47 100.591 292.409C103.5 294.318 107 295.273 111.091 295.273C113.424 295.273 115.515 294.985 117.364 294.409C119.212 293.803 120.818 292.939 122.182 291.818C123.545 290.697 124.652 289.348 125.5 287.773C126.379 286.167 126.97 284.364 127.273 282.364L152.909 282.545C152.606 286.485 151.5 290.5 149.591 294.591C147.682 298.652 144.97 302.409 141.455 305.864C137.97 309.288 133.652 312.045 128.5 314.136C123.348 316.227 117.364 317.273 110.545 317.273C102 317.273 94.3333 315.439 87.5455 311.773C80.7879 308.106 75.4394 302.712 71.5 295.591C67.5909 288.47 65.6364 279.758 65.6364 269.455C65.6364 259.091 67.6364 250.364 71.6364 243.273C75.6364 236.152 81.0303 230.773 87.8182 227.136C94.6061 223.47 102.182 221.636 110.545 221.636C116.424 221.636 121.833 222.439 126.773 224.045C131.712 225.652 136.045 228 139.773 231.091C143.5 234.152 146.5 237.924 148.773 242.409C151.045 246.894 152.424 252.03 152.909 257.818ZM164.375 316V222.909H189.648V259.273H223.102V222.909H248.375V316H223.102V279.636H189.648V316H164.375ZM285.648 222.909V316H260.375V222.909H285.648ZM297.625 316V222.909H322.898V295.636H360.534V316H297.625ZM394.932 316H367.659L398.386 222.909H432.932L463.659 316H436.386L416.023 248.545H415.295L394.932 316ZM389.841 279.273H441.114V298.182H389.841V279.273ZM472.625 316V222.909H497.898V260.545H499.17L527.17 222.909H556.625L525.17 264.364L557.352 316H527.17L506.261 281.091L497.898 292V316H472.625ZM588.307 316H561.034L591.761 222.909H626.307L657.034 316H629.761L609.398 248.545H608.67L588.307 316ZM583.216 279.273H634.489V298.182H583.216V279.273ZM666 316V222.909H691.273V295.636H728.909V316H666ZM763.307 316H736.034L766.761 222.909H801.307L832.034 316H804.761L784.398 248.545H783.67L763.307 316ZM758.216 279.273H809.489V298.182H758.216V279.273Z" fill="white"/>
<path d="M71.9219 357.131C71.831 356.324 71.456 355.699 70.7969 355.256C70.1378 354.807 69.3082 354.582 68.3082 354.582C67.5923 354.582 66.973 354.696 66.4503 354.923C65.9276 355.145 65.5213 355.452 65.2315 355.844C64.9474 356.23 64.8054 356.67 64.8054 357.165C64.8054 357.58 64.902 357.937 65.0952 358.239C65.294 358.54 65.5526 358.793 65.8707 358.997C66.1946 359.196 66.5412 359.364 66.9105 359.5C67.2798 359.631 67.6349 359.739 67.9759 359.824L69.6804 360.267C70.2372 360.403 70.8082 360.588 71.3935 360.821C71.9787 361.054 72.5213 361.361 73.0213 361.741C73.5213 362.122 73.9247 362.594 74.2315 363.156C74.544 363.719 74.7003 364.392 74.7003 365.176C74.7003 366.165 74.4446 367.043 73.9332 367.81C73.4276 368.577 72.6918 369.182 71.7259 369.625C70.7656 370.068 69.6037 370.29 68.2401 370.29C66.9332 370.29 65.8026 370.082 64.848 369.668C63.8935 369.253 63.1463 368.665 62.6065 367.903C62.0668 367.136 61.7685 366.227 61.7116 365.176H64.3537C64.4048 365.807 64.6094 366.332 64.9673 366.753C65.331 367.168 65.794 367.477 66.3565 367.682C66.9247 367.881 67.5469 367.98 68.223 367.98C68.9673 367.98 69.6293 367.864 70.2088 367.631C70.794 367.392 71.2543 367.062 71.5895 366.642C71.9247 366.216 72.0923 365.719 72.0923 365.151C72.0923 364.634 71.9446 364.21 71.6491 363.881C71.3594 363.551 70.9645 363.278 70.4645 363.062C69.9702 362.847 69.4105 362.656 68.7855 362.491L66.723 361.929C65.3253 361.548 64.2173 360.989 63.3991 360.25C62.5866 359.511 62.1804 358.534 62.1804 357.318C62.1804 356.312 62.4531 355.435 62.9986 354.685C63.544 353.935 64.2827 353.352 65.2145 352.938C66.1463 352.517 67.1974 352.307 68.3679 352.307C69.5497 352.307 70.5923 352.514 71.4957 352.929C72.4048 353.344 73.1207 353.915 73.6435 354.642C74.1662 355.364 74.4389 356.193 74.4616 357.131H71.9219ZM83.7536 356.909V358.955H76.603V356.909H83.7536ZM78.5206 353.773H81.0689V366.156C81.0689 366.651 81.1428 367.023 81.2905 367.273C81.4382 367.517 81.6286 367.685 81.8615 367.776C82.1001 367.861 82.3587 367.903 82.6371 367.903C82.8416 367.903 83.0206 367.889 83.174 367.861C83.3274 367.832 83.4467 367.81 83.532 367.793L83.9922 369.898C83.8445 369.955 83.6342 370.011 83.3615 370.068C83.0888 370.131 82.7479 370.165 82.3388 370.17C81.6683 370.182 81.0433 370.062 80.4638 369.812C79.8842 369.562 79.4155 369.176 79.0575 368.653C78.6996 368.131 78.5206 367.474 78.5206 366.685V353.773ZM94.8651 364.571V356.909H97.4219V370H94.9162V367.733H94.7798C94.4787 368.432 93.9957 369.014 93.331 369.48C92.6719 369.94 91.8509 370.17 90.8679 370.17C90.027 370.17 89.2827 369.986 88.6349 369.616C87.9929 369.241 87.4872 368.688 87.1179 367.955C86.7543 367.222 86.5724 366.315 86.5724 365.236V356.909H89.1207V364.929C89.1207 365.821 89.3679 366.531 89.8622 367.06C90.3565 367.588 90.9986 367.852 91.7884 367.852C92.2656 367.852 92.7401 367.733 93.2116 367.494C93.6889 367.256 94.0838 366.895 94.3963 366.412C94.7145 365.929 94.8707 365.315 94.8651 364.571ZM105.746 370.256C104.69 370.256 103.746 369.986 102.917 369.446C102.093 368.901 101.445 368.125 100.974 367.119C100.508 366.108 100.275 364.895 100.275 363.48C100.275 362.065 100.511 360.855 100.982 359.849C101.46 358.844 102.113 358.074 102.942 357.54C103.772 357.006 104.712 356.739 105.763 356.739C106.576 356.739 107.229 356.875 107.724 357.148C108.224 357.415 108.61 357.727 108.883 358.085C109.161 358.443 109.377 358.759 109.531 359.031H109.684V352.545H112.232V370H109.744V367.963H109.531C109.377 368.241 109.156 368.56 108.866 368.918C108.582 369.276 108.19 369.588 107.69 369.855C107.19 370.122 106.542 370.256 105.746 370.256ZM106.309 368.082C107.042 368.082 107.661 367.889 108.167 367.503C108.678 367.111 109.065 366.568 109.326 365.875C109.593 365.182 109.727 364.375 109.727 363.455C109.727 362.545 109.596 361.75 109.335 361.068C109.073 360.386 108.69 359.855 108.184 359.474C107.678 359.094 107.053 358.903 106.309 358.903C105.542 358.903 104.903 359.102 104.391 359.5C103.88 359.898 103.494 360.44 103.232 361.128C102.977 361.815 102.849 362.591 102.849 363.455C102.849 364.33 102.979 365.116 103.241 365.815C103.502 366.514 103.888 367.068 104.4 367.477C104.917 367.881 105.553 368.082 106.309 368.082ZM121.511 370.264C120.222 370.264 119.111 369.989 118.179 369.438C117.253 368.881 116.537 368.099 116.031 367.094C115.531 366.082 115.281 364.898 115.281 363.54C115.281 362.199 115.531 361.017 116.031 359.994C116.537 358.972 117.241 358.173 118.145 357.599C119.054 357.026 120.116 356.739 121.332 356.739C122.071 356.739 122.787 356.861 123.48 357.105C124.173 357.349 124.795 357.733 125.347 358.256C125.898 358.778 126.332 359.457 126.651 360.293C126.969 361.122 127.128 362.131 127.128 363.318V364.222H116.722V362.312H124.631C124.631 361.642 124.494 361.048 124.222 360.531C123.949 360.009 123.565 359.597 123.071 359.295C122.582 358.994 122.009 358.844 121.349 358.844C120.634 358.844 120.009 359.02 119.474 359.372C118.946 359.719 118.537 360.173 118.247 360.736C117.963 361.293 117.821 361.898 117.821 362.551V364.043C117.821 364.918 117.974 365.662 118.281 366.276C118.594 366.889 119.028 367.358 119.585 367.682C120.142 368 120.793 368.159 121.537 368.159C122.02 368.159 122.46 368.091 122.858 367.955C123.256 367.812 123.599 367.602 123.889 367.324C124.179 367.045 124.401 366.702 124.554 366.293L126.966 366.727C126.773 367.437 126.426 368.06 125.926 368.594C125.432 369.122 124.81 369.534 124.06 369.83C123.315 370.119 122.466 370.264 121.511 370.264ZM132.504 362.227V370H129.955V356.909H132.401V359.04H132.563C132.864 358.347 133.336 357.79 133.978 357.369C134.626 356.949 135.441 356.739 136.424 356.739C137.316 356.739 138.097 356.926 138.768 357.301C139.438 357.67 139.958 358.222 140.327 358.955C140.697 359.687 140.881 360.594 140.881 361.673V370H138.333V361.98C138.333 361.031 138.086 360.29 137.592 359.756C137.097 359.216 136.418 358.946 135.555 358.946C134.964 358.946 134.438 359.074 133.978 359.33C133.523 359.585 133.163 359.96 132.896 360.455C132.634 360.943 132.504 361.534 132.504 362.227ZM150.41 356.909V358.955H143.259V356.909H150.41ZM145.177 353.773H147.725V366.156C147.725 366.651 147.799 367.023 147.947 367.273C148.094 367.517 148.285 367.685 148.518 367.776C148.756 367.861 149.015 367.903 149.293 367.903C149.498 367.903 149.677 367.889 149.83 367.861C149.984 367.832 150.103 367.81 150.188 367.793L150.648 369.898C150.501 369.955 150.29 370.011 150.018 370.068C149.745 370.131 149.404 370.165 148.995 370.17C148.325 370.182 147.7 370.062 147.12 369.812C146.54 369.562 146.072 369.176 145.714 368.653C145.356 368.131 145.177 367.474 145.177 366.685V353.773Z" fill="#3498DB"/>
<path d="M61.9176 399V381.545H72.7415V383.812H64.5511V389.131H71.9659V391.389H64.5511V399H61.9176ZM83.2479 393.571V385.909H85.8047V399H83.299V396.733H83.1626C82.8615 397.432 82.3786 398.014 81.7138 398.48C81.0547 398.94 80.2337 399.17 79.2507 399.17C78.4098 399.17 77.6655 398.986 77.0178 398.616C76.3757 398.241 75.87 397.688 75.5007 396.955C75.1371 396.222 74.9553 395.315 74.9553 394.236V385.909H77.5036V393.929C77.5036 394.821 77.7507 395.531 78.245 396.06C78.7393 396.588 79.3814 396.852 80.1712 396.852C80.6484 396.852 81.1229 396.733 81.5945 396.494C82.0717 396.256 82.4666 395.895 82.7791 395.412C83.0973 394.929 83.2536 394.315 83.2479 393.571ZM91.777 381.545V399H89.2287V381.545H91.777ZM97.7536 381.545V399H95.2053V381.545H97.7536ZM117.258 386.131C117.167 385.324 116.792 384.699 116.133 384.256C115.474 383.807 114.644 383.582 113.644 383.582C112.928 383.582 112.309 383.696 111.786 383.923C111.263 384.145 110.857 384.452 110.567 384.844C110.283 385.23 110.141 385.67 110.141 386.165C110.141 386.58 110.238 386.937 110.431 387.239C110.63 387.54 110.888 387.793 111.207 387.997C111.531 388.196 111.877 388.364 112.246 388.5C112.616 388.631 112.971 388.739 113.312 388.824L115.016 389.267C115.573 389.403 116.144 389.588 116.729 389.821C117.315 390.054 117.857 390.361 118.357 390.741C118.857 391.122 119.261 391.594 119.567 392.156C119.88 392.719 120.036 393.392 120.036 394.176C120.036 395.165 119.781 396.043 119.269 396.81C118.763 397.577 118.028 398.182 117.062 398.625C116.102 399.068 114.94 399.29 113.576 399.29C112.269 399.29 111.138 399.082 110.184 398.668C109.229 398.253 108.482 397.665 107.942 396.903C107.403 396.136 107.104 395.227 107.048 394.176H109.69C109.741 394.807 109.945 395.332 110.303 395.753C110.667 396.168 111.13 396.477 111.692 396.682C112.261 396.881 112.883 396.98 113.559 396.98C114.303 396.98 114.965 396.864 115.545 396.631C116.13 396.392 116.59 396.062 116.925 395.642C117.261 395.216 117.428 394.719 117.428 394.151C117.428 393.634 117.281 393.21 116.985 392.881C116.695 392.551 116.3 392.278 115.8 392.062C115.306 391.847 114.746 391.656 114.121 391.491L112.059 390.929C110.661 390.548 109.553 389.989 108.735 389.25C107.923 388.511 107.516 387.534 107.516 386.318C107.516 385.312 107.789 384.435 108.335 383.685C108.88 382.935 109.619 382.352 110.55 381.938C111.482 381.517 112.533 381.307 113.704 381.307C114.886 381.307 115.928 381.514 116.832 381.929C117.741 382.344 118.457 382.915 118.979 383.642C119.502 384.364 119.775 385.193 119.798 386.131H117.258ZM129.089 385.909V387.955H121.939V385.909H129.089ZM123.857 382.773H126.405V395.156C126.405 395.651 126.479 396.023 126.626 396.273C126.774 396.517 126.964 396.685 127.197 396.776C127.436 396.861 127.695 396.903 127.973 396.903C128.178 396.903 128.357 396.889 128.51 396.861C128.663 396.832 128.783 396.81 128.868 396.793L129.328 398.898C129.18 398.955 128.97 399.011 128.697 399.068C128.425 399.131 128.084 399.165 127.675 399.17C127.004 399.182 126.379 399.062 125.8 398.812C125.22 398.562 124.751 398.176 124.393 397.653C124.036 397.131 123.857 396.474 123.857 395.685V382.773ZM135.718 399.29C134.888 399.29 134.138 399.136 133.468 398.83C132.798 398.517 132.266 398.065 131.874 397.474C131.488 396.884 131.295 396.159 131.295 395.301C131.295 394.562 131.437 393.955 131.721 393.477C132.005 393 132.388 392.622 132.871 392.344C133.354 392.065 133.894 391.855 134.491 391.713C135.087 391.571 135.695 391.463 136.315 391.389C137.099 391.298 137.735 391.224 138.224 391.168C138.712 391.105 139.067 391.006 139.289 390.869C139.511 390.733 139.621 390.511 139.621 390.205V390.145C139.621 389.401 139.411 388.824 138.991 388.415C138.576 388.006 137.957 387.801 137.133 387.801C136.275 387.801 135.599 387.991 135.104 388.372C134.616 388.747 134.278 389.165 134.09 389.625L131.695 389.08C131.979 388.284 132.394 387.642 132.94 387.153C133.491 386.659 134.124 386.301 134.84 386.08C135.556 385.852 136.309 385.739 137.099 385.739C137.621 385.739 138.175 385.801 138.761 385.926C139.352 386.045 139.903 386.267 140.414 386.591C140.931 386.915 141.354 387.378 141.684 387.98C142.013 388.577 142.178 389.352 142.178 390.307V399H139.69V397.21H139.587C139.423 397.54 139.175 397.864 138.846 398.182C138.516 398.5 138.093 398.764 137.576 398.974C137.059 399.185 136.44 399.29 135.718 399.29ZM136.272 397.244C136.977 397.244 137.579 397.105 138.079 396.827C138.585 396.548 138.968 396.185 139.229 395.736C139.496 395.281 139.63 394.795 139.63 394.278V392.591C139.539 392.682 139.363 392.767 139.102 392.847C138.846 392.92 138.553 392.986 138.224 393.043C137.894 393.094 137.573 393.142 137.261 393.188C136.948 393.227 136.687 393.261 136.477 393.29C135.982 393.352 135.531 393.457 135.121 393.605C134.718 393.753 134.394 393.966 134.15 394.244C133.911 394.517 133.792 394.881 133.792 395.335C133.792 395.966 134.025 396.443 134.491 396.767C134.957 397.085 135.55 397.244 136.272 397.244ZM151.087 399.264C149.82 399.264 148.729 398.977 147.814 398.403C146.905 397.824 146.206 397.026 145.717 396.009C145.229 394.991 144.984 393.827 144.984 392.514C144.984 391.185 145.234 390.011 145.734 388.994C146.234 387.972 146.939 387.173 147.848 386.599C148.757 386.026 149.828 385.739 151.061 385.739C152.055 385.739 152.942 385.923 153.72 386.293C154.499 386.656 155.126 387.168 155.604 387.827C156.087 388.486 156.374 389.256 156.464 390.136H153.984C153.848 389.523 153.536 388.994 153.047 388.551C152.564 388.108 151.916 387.886 151.104 387.886C150.393 387.886 149.771 388.074 149.237 388.449C148.709 388.818 148.297 389.347 148.001 390.034C147.706 390.716 147.558 391.523 147.558 392.455C147.558 393.409 147.703 394.233 147.993 394.926C148.283 395.619 148.692 396.156 149.22 396.537C149.754 396.918 150.382 397.108 151.104 397.108C151.587 397.108 152.024 397.02 152.416 396.844C152.814 396.662 153.146 396.403 153.413 396.068C153.686 395.733 153.876 395.33 153.984 394.858H156.464C156.374 395.705 156.098 396.46 155.638 397.125C155.178 397.79 154.561 398.312 153.788 398.693C153.021 399.074 152.121 399.264 151.087 399.264ZM161.533 394.56L161.516 391.449H161.96L167.175 385.909H170.227L164.278 392.216H163.877L161.533 394.56ZM159.19 399V381.545H161.738V399H159.19ZM167.457 399L162.769 392.778L164.525 390.997L170.585 399H167.457ZM184.756 399H179.105V381.545H184.935C186.645 381.545 188.114 381.895 189.341 382.594C190.568 383.287 191.509 384.284 192.162 385.585C192.821 386.881 193.151 388.435 193.151 390.247C193.151 392.065 192.818 393.628 192.153 394.935C191.494 396.241 190.54 397.247 189.29 397.952C188.04 398.651 186.528 399 184.756 399ZM181.739 396.699H184.611C185.94 396.699 187.045 396.449 187.926 395.949C188.807 395.443 189.466 394.713 189.903 393.759C190.341 392.798 190.56 391.628 190.56 390.247C190.56 388.878 190.341 387.716 189.903 386.761C189.472 385.807 188.827 385.082 187.969 384.588C187.111 384.094 186.045 383.847 184.773 383.847H181.739V396.699ZM201.863 399.264C200.573 399.264 199.462 398.989 198.531 398.438C197.604 397.881 196.888 397.099 196.383 396.094C195.883 395.082 195.633 393.898 195.633 392.54C195.633 391.199 195.883 390.017 196.383 388.994C196.888 387.972 197.593 387.173 198.496 386.599C199.406 386.026 200.468 385.739 201.684 385.739C202.423 385.739 203.138 385.861 203.832 386.105C204.525 386.349 205.147 386.733 205.698 387.256C206.249 387.778 206.684 388.457 207.002 389.293C207.32 390.122 207.479 391.131 207.479 392.318V393.222H197.073V391.312H204.982C204.982 390.642 204.846 390.048 204.573 389.531C204.3 389.009 203.917 388.597 203.423 388.295C202.934 387.994 202.36 387.844 201.701 387.844C200.985 387.844 200.36 388.02 199.826 388.372C199.298 388.719 198.888 389.173 198.599 389.736C198.315 390.293 198.173 390.898 198.173 391.551V393.043C198.173 393.918 198.326 394.662 198.633 395.276C198.945 395.889 199.38 396.358 199.937 396.682C200.494 397 201.144 397.159 201.888 397.159C202.371 397.159 202.812 397.091 203.21 396.955C203.607 396.812 203.951 396.602 204.241 396.324C204.531 396.045 204.752 395.702 204.906 395.293L207.317 395.727C207.124 396.437 206.778 397.06 206.278 397.594C205.783 398.122 205.161 398.534 204.411 398.83C203.667 399.119 202.817 399.264 201.863 399.264ZM221.131 385.909L216.384 399H213.656L208.901 385.909H211.636L214.952 395.983H215.088L218.395 385.909H221.131ZM228.722 399.264C227.433 399.264 226.322 398.989 225.39 398.438C224.464 397.881 223.748 397.099 223.242 396.094C222.742 395.082 222.492 393.898 222.492 392.54C222.492 391.199 222.742 390.017 223.242 388.994C223.748 387.972 224.452 387.173 225.356 386.599C226.265 386.026 227.327 385.739 228.543 385.739C229.282 385.739 229.998 385.861 230.691 386.105C231.384 386.349 232.006 386.733 232.558 387.256C233.109 387.778 233.543 388.457 233.862 389.293C234.18 390.122 234.339 391.131 234.339 392.318V393.222H223.933V391.312H231.842C231.842 390.642 231.705 390.048 231.433 389.531C231.16 389.009 230.776 388.597 230.282 388.295C229.793 387.994 229.219 387.844 228.56 387.844C227.844 387.844 227.219 388.02 226.685 388.372C226.157 388.719 225.748 389.173 225.458 389.736C225.174 390.293 225.032 390.898 225.032 391.551V393.043C225.032 393.918 225.185 394.662 225.492 395.276C225.805 395.889 226.239 396.358 226.796 396.682C227.353 397 228.004 397.159 228.748 397.159C229.231 397.159 229.671 397.091 230.069 396.955C230.467 396.812 230.81 396.602 231.1 396.324C231.39 396.045 231.612 395.702 231.765 395.293L234.177 395.727C233.984 396.437 233.637 397.06 233.137 397.594C232.643 398.122 232.021 398.534 231.271 398.83C230.526 399.119 229.677 399.264 228.722 399.264ZM239.714 381.545V399H237.166V381.545H239.714ZM248.657 399.264C247.43 399.264 246.359 398.983 245.444 398.42C244.529 397.858 243.819 397.071 243.313 396.06C242.808 395.048 242.555 393.866 242.555 392.514C242.555 391.156 242.808 389.969 243.313 388.952C243.819 387.935 244.529 387.145 245.444 386.582C246.359 386.02 247.43 385.739 248.657 385.739C249.884 385.739 250.955 386.02 251.87 386.582C252.785 387.145 253.495 387.935 254.001 388.952C254.506 389.969 254.759 391.156 254.759 392.514C254.759 393.866 254.506 395.048 254.001 396.06C253.495 397.071 252.785 397.858 251.87 398.42C250.955 398.983 249.884 399.264 248.657 399.264ZM248.665 397.125C249.461 397.125 250.12 396.915 250.643 396.494C251.165 396.074 251.552 395.514 251.802 394.815C252.058 394.116 252.185 393.347 252.185 392.506C252.185 391.67 252.058 390.903 251.802 390.205C251.552 389.5 251.165 388.935 250.643 388.509C250.12 388.082 249.461 387.869 248.665 387.869C247.864 387.869 247.2 388.082 246.671 388.509C246.148 388.935 245.759 389.5 245.504 390.205C245.254 390.903 245.129 391.67 245.129 392.506C245.129 393.347 245.254 394.116 245.504 394.815C245.759 395.514 246.148 396.074 246.671 396.494C247.2 396.915 247.864 397.125 248.665 397.125ZM257.604 403.909V385.909H260.092V388.031H260.305C260.453 387.759 260.666 387.443 260.945 387.085C261.223 386.727 261.609 386.415 262.104 386.148C262.598 385.875 263.251 385.739 264.064 385.739C265.121 385.739 266.064 386.006 266.893 386.54C267.723 387.074 268.374 387.844 268.845 388.849C269.322 389.855 269.561 391.065 269.561 392.48C269.561 393.895 269.325 395.108 268.854 396.119C268.382 397.125 267.734 397.901 266.911 398.446C266.087 398.986 265.146 399.256 264.089 399.256C263.294 399.256 262.643 399.122 262.138 398.855C261.638 398.588 261.246 398.276 260.962 397.918C260.678 397.56 260.459 397.241 260.305 396.963H260.152V403.909H257.604ZM260.101 392.455C260.101 393.375 260.234 394.182 260.501 394.875C260.768 395.568 261.155 396.111 261.661 396.503C262.166 396.889 262.786 397.082 263.518 397.082C264.28 397.082 264.916 396.881 265.428 396.477C265.939 396.068 266.325 395.514 266.587 394.815C266.854 394.116 266.987 393.33 266.987 392.455C266.987 391.591 266.857 390.815 266.595 390.128C266.339 389.44 265.953 388.898 265.436 388.5C264.925 388.102 264.286 387.903 263.518 387.903C262.78 387.903 262.155 388.094 261.643 388.474C261.138 388.855 260.754 389.386 260.493 390.068C260.232 390.75 260.101 391.545 260.101 392.455ZM278.058 399.264C276.768 399.264 275.658 398.989 274.726 398.438C273.8 397.881 273.084 397.099 272.578 396.094C272.078 395.082 271.828 393.898 271.828 392.54C271.828 391.199 272.078 390.017 272.578 388.994C273.084 387.972 273.788 387.173 274.692 386.599C275.601 386.026 276.663 385.739 277.879 385.739C278.618 385.739 279.334 385.861 280.027 386.105C280.72 386.349 281.342 386.733 281.893 387.256C282.445 387.778 282.879 388.457 283.197 389.293C283.516 390.122 283.675 391.131 283.675 392.318V393.222H273.268V391.312H281.178C281.178 390.642 281.041 390.048 280.768 389.531C280.496 389.009 280.112 388.597 279.618 388.295C279.129 387.994 278.555 387.844 277.896 387.844C277.18 387.844 276.555 388.02 276.021 388.372C275.493 388.719 275.084 389.173 274.794 389.736C274.51 390.293 274.368 390.898 274.368 391.551V393.043C274.368 393.918 274.521 394.662 274.828 395.276C275.141 395.889 275.575 396.358 276.132 396.682C276.689 397 277.339 397.159 278.084 397.159C278.567 397.159 279.007 397.091 279.405 396.955C279.803 396.812 280.146 396.602 280.436 396.324C280.726 396.045 280.947 395.702 281.101 395.293L283.513 395.727C283.32 396.437 282.973 397.06 282.473 397.594C281.979 398.122 281.357 398.534 280.607 398.83C279.862 399.119 279.013 399.264 278.058 399.264ZM286.502 399V385.909H288.965V387.989H289.102C289.34 387.284 289.761 386.73 290.363 386.327C290.971 385.918 291.658 385.713 292.425 385.713C292.585 385.713 292.772 385.719 292.988 385.73C293.21 385.741 293.383 385.756 293.508 385.773V388.21C293.406 388.182 293.224 388.151 292.962 388.116C292.701 388.077 292.44 388.057 292.178 388.057C291.576 388.057 291.039 388.185 290.567 388.44C290.102 388.69 289.732 389.04 289.46 389.489C289.187 389.932 289.05 390.437 289.05 391.006V399H286.502Z" fill="#E74C3C"/>
<path d="M73.142 410.545H75.7841V422.026C75.7841 423.247 75.4972 424.33 74.9233 425.273C74.3494 426.21 73.5426 426.949 72.5028 427.489C71.4631 428.023 70.2443 428.29 68.8466 428.29C67.4545 428.29 66.2386 428.023 65.1989 427.489C64.1591 426.949 63.3523 426.21 62.7784 425.273C62.2045 424.33 61.9176 423.247 61.9176 422.026V410.545H64.5511V421.812C64.5511 422.602 64.7244 423.304 65.071 423.918C65.4233 424.531 65.9205 425.014 66.5625 425.366C67.2045 425.713 67.9659 425.886 68.8466 425.886C69.733 425.886 70.4972 425.713 71.1392 425.366C71.7869 425.014 72.2813 424.531 72.6222 423.918C72.9688 423.304 73.142 422.602 73.142 421.812V410.545ZM82.2464 410.545V428H79.6129V410.545H82.2464ZM92.5249 409.727L86.8999 430.625H84.6243L90.2493 409.727H92.5249ZM106.119 410.545H108.761V422.026C108.761 423.247 108.474 424.33 107.9 425.273C107.326 426.21 106.519 426.949 105.479 427.489C104.44 428.023 103.221 428.29 101.823 428.29C100.431 428.29 99.2152 428.023 98.1754 427.489C97.1357 426.949 96.3288 426.21 95.755 425.273C95.1811 424.33 94.8942 423.247 94.8942 422.026V410.545H97.5277V421.812C97.5277 422.602 97.701 423.304 98.0476 423.918C98.3999 424.531 98.897 425.014 99.5391 425.366C100.181 425.713 100.942 425.886 101.823 425.886C102.71 425.886 103.474 425.713 104.116 425.366C104.763 425.014 105.258 424.531 105.599 423.918C105.945 423.304 106.119 422.602 106.119 421.812V410.545ZM114.422 410.545L118.598 417.372H118.734L122.911 410.545H125.962L120.524 419.273L125.996 428H122.928L118.734 421.267H118.598L114.405 428H111.337L116.902 419.273L111.371 410.545H114.422ZM140.576 428H134.925V410.545H140.755C142.465 410.545 143.934 410.895 145.161 411.594C146.388 412.287 147.329 413.284 147.982 414.585C148.641 415.881 148.971 417.435 148.971 419.247C148.971 421.065 148.638 422.628 147.974 423.935C147.315 425.241 146.36 426.247 145.11 426.952C143.86 427.651 142.349 428 140.576 428ZM137.559 425.699H140.431C141.761 425.699 142.866 425.449 143.746 424.949C144.627 424.443 145.286 423.713 145.724 422.759C146.161 421.798 146.38 420.628 146.38 419.247C146.38 417.878 146.161 416.716 145.724 415.761C145.292 414.807 144.647 414.082 143.789 413.588C142.931 413.094 141.866 412.847 140.593 412.847H137.559V425.699ZM157.683 428.264C156.393 428.264 155.283 427.989 154.351 427.438C153.425 426.881 152.709 426.099 152.203 425.094C151.703 424.082 151.453 422.898 151.453 421.54C151.453 420.199 151.703 419.017 152.203 417.994C152.709 416.972 153.413 416.173 154.317 415.599C155.226 415.026 156.288 414.739 157.504 414.739C158.243 414.739 158.959 414.861 159.652 415.105C160.345 415.349 160.967 415.733 161.518 416.256C162.07 416.778 162.504 417.457 162.822 418.293C163.141 419.122 163.3 420.131 163.3 421.318V422.222H152.893V420.312H160.803C160.803 419.642 160.666 419.048 160.393 418.531C160.121 418.009 159.737 417.597 159.243 417.295C158.754 416.994 158.18 416.844 157.521 416.844C156.805 416.844 156.18 417.02 155.646 417.372C155.118 417.719 154.709 418.173 154.419 418.736C154.135 419.293 153.993 419.898 153.993 420.551V422.043C153.993 422.918 154.146 423.662 154.453 424.276C154.766 424.889 155.2 425.358 155.757 425.682C156.314 426 156.964 426.159 157.709 426.159C158.192 426.159 158.632 426.091 159.03 425.955C159.428 425.812 159.771 425.602 160.061 425.324C160.351 425.045 160.572 424.702 160.726 424.293L163.138 424.727C162.945 425.437 162.598 426.06 162.098 426.594C161.604 427.122 160.982 427.534 160.232 427.83C159.487 428.119 158.638 428.264 157.683 428.264ZM175.937 418.105L173.627 418.514C173.531 418.219 173.377 417.937 173.167 417.67C172.962 417.403 172.684 417.185 172.332 417.014C171.979 416.844 171.539 416.759 171.011 416.759C170.289 416.759 169.687 416.92 169.204 417.244C168.721 417.562 168.479 417.974 168.479 418.48C168.479 418.918 168.641 419.27 168.965 419.537C169.289 419.804 169.812 420.023 170.533 420.193L172.613 420.67C173.817 420.949 174.715 421.378 175.306 421.957C175.897 422.537 176.192 423.29 176.192 424.216C176.192 425 175.965 425.699 175.511 426.312C175.062 426.92 174.434 427.398 173.627 427.744C172.826 428.091 171.897 428.264 170.84 428.264C169.374 428.264 168.178 427.952 167.252 427.327C166.326 426.696 165.758 425.801 165.548 424.642L168.011 424.267C168.164 424.909 168.479 425.395 168.957 425.724C169.434 426.048 170.056 426.21 170.823 426.21C171.658 426.21 172.326 426.037 172.826 425.69C173.326 425.338 173.576 424.909 173.576 424.403C173.576 423.994 173.423 423.651 173.116 423.372C172.815 423.094 172.352 422.884 171.727 422.741L169.511 422.256C168.289 421.977 167.386 421.534 166.8 420.926C166.221 420.318 165.931 419.548 165.931 418.616C165.931 417.844 166.147 417.168 166.579 416.588C167.011 416.009 167.607 415.557 168.369 415.233C169.13 414.903 170.002 414.739 170.985 414.739C172.4 414.739 173.513 415.045 174.326 415.659C175.138 416.267 175.675 417.082 175.937 418.105ZM178.994 428V414.909H181.543V428H178.994ZM180.281 412.889C179.838 412.889 179.457 412.741 179.139 412.446C178.827 412.145 178.67 411.787 178.67 411.372C178.67 410.952 178.827 410.594 179.139 410.298C179.457 409.997 179.838 409.847 180.281 409.847C180.724 409.847 181.102 409.997 181.415 410.298C181.733 410.594 181.892 410.952 181.892 411.372C181.892 411.787 181.733 412.145 181.415 412.446C181.102 412.741 180.724 412.889 180.281 412.889ZM190.46 433.182C189.42 433.182 188.525 433.045 187.775 432.773C187.031 432.5 186.423 432.139 185.951 431.69C185.479 431.241 185.127 430.75 184.894 430.216L187.085 429.312C187.238 429.562 187.442 429.827 187.698 430.105C187.96 430.389 188.312 430.631 188.755 430.83C189.204 431.028 189.781 431.128 190.485 431.128C191.451 431.128 192.249 430.892 192.88 430.42C193.511 429.955 193.826 429.21 193.826 428.188V425.614H193.664C193.511 425.892 193.289 426.202 192.999 426.543C192.715 426.884 192.323 427.179 191.823 427.429C191.323 427.679 190.673 427.804 189.871 427.804C188.837 427.804 187.906 427.562 187.076 427.08C186.252 426.591 185.599 425.872 185.116 424.923C184.638 423.969 184.4 422.795 184.4 421.403C184.4 420.011 184.636 418.818 185.107 417.824C185.585 416.83 186.238 416.068 187.067 415.54C187.897 415.006 188.837 414.739 189.888 414.739C190.701 414.739 191.357 414.875 191.857 415.148C192.357 415.415 192.746 415.727 193.025 416.085C193.309 416.443 193.528 416.759 193.681 417.031H193.869V414.909H196.366V428.29C196.366 429.415 196.104 430.338 195.582 431.06C195.059 431.781 194.352 432.315 193.46 432.662C192.573 433.009 191.573 433.182 190.46 433.182ZM190.434 425.69C191.167 425.69 191.786 425.52 192.292 425.179C192.803 424.832 193.19 424.338 193.451 423.696C193.718 423.048 193.852 422.273 193.852 421.369C193.852 420.489 193.721 419.713 193.46 419.043C193.198 418.372 192.815 417.849 192.309 417.474C191.803 417.094 191.178 416.903 190.434 416.903C189.667 416.903 189.028 417.102 188.516 417.5C188.005 417.892 187.619 418.426 187.357 419.102C187.102 419.778 186.974 420.534 186.974 421.369C186.974 422.227 187.104 422.98 187.366 423.628C187.627 424.276 188.013 424.781 188.525 425.145C189.042 425.509 189.678 425.69 190.434 425.69ZM202.332 420.227V428H199.783V414.909H202.229V417.04H202.391C202.692 416.347 203.164 415.79 203.806 415.369C204.454 414.949 205.269 414.739 206.252 414.739C207.144 414.739 207.925 414.926 208.596 415.301C209.266 415.67 209.786 416.222 210.156 416.955C210.525 417.687 210.71 418.594 210.71 419.673V428H208.161V419.98C208.161 419.031 207.914 418.29 207.42 417.756C206.925 417.216 206.246 416.946 205.383 416.946C204.792 416.946 204.266 417.074 203.806 417.33C203.352 417.585 202.991 417.96 202.724 418.455C202.462 418.943 202.332 419.534 202.332 420.227ZM219.769 428.264C218.479 428.264 217.369 427.989 216.437 427.438C215.511 426.881 214.795 426.099 214.289 425.094C213.789 424.082 213.539 422.898 213.539 421.54C213.539 420.199 213.789 419.017 214.289 417.994C214.795 416.972 215.499 416.173 216.403 415.599C217.312 415.026 218.374 414.739 219.59 414.739C220.329 414.739 221.045 414.861 221.738 415.105C222.431 415.349 223.053 415.733 223.604 416.256C224.156 416.778 224.59 417.457 224.908 418.293C225.227 419.122 225.386 420.131 225.386 421.318V422.222H214.979V420.312H222.888C222.888 419.642 222.752 419.048 222.479 418.531C222.207 418.009 221.823 417.597 221.329 417.295C220.84 416.994 220.266 416.844 219.607 416.844C218.891 416.844 218.266 417.02 217.732 417.372C217.204 417.719 216.795 418.173 216.505 418.736C216.221 419.293 216.079 419.898 216.079 420.551V422.043C216.079 422.918 216.232 423.662 216.539 424.276C216.852 424.889 217.286 425.358 217.843 425.682C218.4 426 219.05 426.159 219.795 426.159C220.278 426.159 220.718 426.091 221.116 425.955C221.513 425.812 221.857 425.602 222.147 425.324C222.437 425.045 222.658 424.702 222.812 424.293L225.224 424.727C225.031 425.437 224.684 426.06 224.184 426.594C223.69 427.122 223.067 427.534 222.317 427.83C221.573 428.119 220.724 428.264 219.769 428.264ZM228.213 428V414.909H230.676V416.989H230.812C231.051 416.284 231.472 415.73 232.074 415.327C232.682 414.918 233.369 414.713 234.136 414.713C234.295 414.713 234.483 414.719 234.699 414.73C234.92 414.741 235.094 414.756 235.219 414.773V417.21C235.116 417.182 234.935 417.151 234.673 417.116C234.412 417.077 234.151 417.057 233.889 417.057C233.287 417.057 232.75 417.185 232.278 417.44C231.813 417.69 231.443 418.04 231.17 418.489C230.898 418.932 230.761 419.437 230.761 420.006V428H228.213Z" fill="#2ECC71"/>
<path d="M63.4432 439.545L68.3011 453.761H68.4972L73.3551 439.545H76.2017L69.9205 457H66.8778L60.5966 439.545H63.4432ZM78.5178 457V443.909H81.0661V457H78.5178ZM79.8047 441.889C79.3615 441.889 78.9808 441.741 78.6626 441.446C78.3501 441.145 78.1939 440.787 78.1939 440.372C78.1939 439.952 78.3501 439.594 78.6626 439.298C78.9808 438.997 79.3615 438.847 79.8047 438.847C80.2479 438.847 80.6257 438.997 80.9382 439.298C81.2564 439.594 81.4155 439.952 81.4155 440.372C81.4155 440.787 81.2564 441.145 80.9382 441.446C80.6257 441.741 80.2479 441.889 79.8047 441.889ZM89.3949 457.256C88.3381 457.256 87.3949 456.986 86.5653 456.446C85.7415 455.901 85.0938 455.125 84.6222 454.119C84.1563 453.108 83.9233 451.895 83.9233 450.48C83.9233 449.065 84.1591 447.855 84.6307 446.849C85.108 445.844 85.7614 445.074 86.5909 444.54C87.4205 444.006 88.3608 443.739 89.4119 443.739C90.2244 443.739 90.8778 443.875 91.3722 444.148C91.8722 444.415 92.2585 444.727 92.5312 445.085C92.8097 445.443 93.0256 445.759 93.179 446.031H93.3324V439.545H95.8807V457H93.392V454.963H93.179C93.0256 455.241 92.804 455.56 92.5142 455.918C92.2301 456.276 91.8381 456.588 91.3381 456.855C90.8381 457.122 90.1903 457.256 89.3949 457.256ZM89.9574 455.082C90.6903 455.082 91.3097 454.889 91.8153 454.503C92.3267 454.111 92.7131 453.568 92.9744 452.875C93.2415 452.182 93.375 451.375 93.375 450.455C93.375 449.545 93.2443 448.75 92.983 448.068C92.7216 447.386 92.3381 446.855 91.8324 446.474C91.3267 446.094 90.7017 445.903 89.9574 445.903C89.1903 445.903 88.5511 446.102 88.0398 446.5C87.5284 446.898 87.142 447.44 86.8807 448.128C86.625 448.815 86.4972 449.591 86.4972 450.455C86.4972 451.33 86.6278 452.116 86.8892 452.815C87.1506 453.514 87.5369 454.068 88.0483 454.477C88.5653 454.881 89.2017 455.082 89.9574 455.082ZM105.16 457.264C103.87 457.264 102.759 456.989 101.827 456.438C100.901 455.881 100.185 455.099 99.6797 454.094C99.1797 453.082 98.9297 451.898 98.9297 450.54C98.9297 449.199 99.1797 448.017 99.6797 446.994C100.185 445.972 100.89 445.173 101.793 444.599C102.702 444.026 103.765 443.739 104.981 443.739C105.719 443.739 106.435 443.861 107.129 444.105C107.822 444.349 108.444 444.733 108.995 445.256C109.546 445.778 109.981 446.457 110.299 447.293C110.617 448.122 110.776 449.131 110.776 450.318V451.222H100.37V449.312H108.279C108.279 448.642 108.143 448.048 107.87 447.531C107.597 447.009 107.214 446.597 106.719 446.295C106.231 445.994 105.657 445.844 104.998 445.844C104.282 445.844 103.657 446.02 103.123 446.372C102.594 446.719 102.185 447.173 101.896 447.736C101.612 448.293 101.469 448.898 101.469 449.551V451.043C101.469 451.918 101.623 452.662 101.93 453.276C102.242 453.889 102.677 454.358 103.234 454.682C103.79 455 104.441 455.159 105.185 455.159C105.668 455.159 106.109 455.091 106.506 454.955C106.904 454.812 107.248 454.602 107.538 454.324C107.827 454.045 108.049 453.702 108.202 453.293L110.614 453.727C110.421 454.437 110.075 455.06 109.575 455.594C109.08 456.122 108.458 456.534 107.708 456.83C106.964 457.119 106.114 457.264 105.16 457.264ZM119.118 457.264C117.891 457.264 116.82 456.983 115.905 456.42C114.99 455.858 114.28 455.071 113.774 454.06C113.268 453.048 113.016 451.866 113.016 450.514C113.016 449.156 113.268 447.969 113.774 446.952C114.28 445.935 114.99 445.145 115.905 444.582C116.82 444.02 117.891 443.739 119.118 443.739C120.345 443.739 121.416 444.02 122.331 444.582C123.246 445.145 123.956 445.935 124.462 446.952C124.967 447.969 125.22 449.156 125.22 450.514C125.22 451.866 124.967 453.048 124.462 454.06C123.956 455.071 123.246 455.858 122.331 456.42C121.416 456.983 120.345 457.264 119.118 457.264ZM119.126 455.125C119.922 455.125 120.581 454.915 121.104 454.494C121.626 454.074 122.013 453.514 122.263 452.815C122.518 452.116 122.646 451.347 122.646 450.506C122.646 449.67 122.518 448.903 122.263 448.205C122.013 447.5 121.626 446.935 121.104 446.509C120.581 446.082 119.922 445.869 119.126 445.869C118.325 445.869 117.661 446.082 117.132 446.509C116.609 446.935 116.22 447.5 115.964 448.205C115.714 448.903 115.589 449.67 115.589 450.506C115.589 451.347 115.714 452.116 115.964 452.815C116.22 453.514 116.609 454.074 117.132 454.494C117.661 454.915 118.325 455.125 119.126 455.125ZM140.271 457H134.621V439.545H140.45C142.161 439.545 143.629 439.895 144.857 440.594C146.084 441.287 147.024 442.284 147.678 443.585C148.337 444.881 148.666 446.435 148.666 448.247C148.666 450.065 148.334 451.628 147.669 452.935C147.01 454.241 146.055 455.247 144.805 455.952C143.555 456.651 142.044 457 140.271 457ZM137.254 454.699H140.126C141.456 454.699 142.561 454.449 143.442 453.949C144.322 453.443 144.982 452.713 145.419 451.759C145.857 450.798 146.075 449.628 146.075 448.247C146.075 446.878 145.857 445.716 145.419 444.761C144.987 443.807 144.342 443.082 143.484 442.588C142.626 442.094 141.561 441.847 140.288 441.847H137.254V454.699ZM157.379 457.264C156.089 457.264 154.978 456.989 154.046 456.438C153.12 455.881 152.404 455.099 151.898 454.094C151.398 453.082 151.148 451.898 151.148 450.54C151.148 449.199 151.398 448.017 151.898 446.994C152.404 445.972 153.109 445.173 154.012 444.599C154.921 444.026 155.984 443.739 157.2 443.739C157.938 443.739 158.654 443.861 159.347 444.105C160.04 444.349 160.663 444.733 161.214 445.256C161.765 445.778 162.2 446.457 162.518 447.293C162.836 448.122 162.995 449.131 162.995 450.318V451.222H152.589V449.312H160.498C160.498 448.642 160.362 448.048 160.089 447.531C159.816 447.009 159.433 446.597 158.938 446.295C158.45 445.994 157.876 445.844 157.217 445.844C156.501 445.844 155.876 446.02 155.342 446.372C154.813 446.719 154.404 447.173 154.114 447.736C153.83 448.293 153.688 448.898 153.688 449.551V451.043C153.688 451.918 153.842 452.662 154.148 453.276C154.461 453.889 154.896 454.358 155.452 454.682C156.009 455 156.66 455.159 157.404 455.159C157.887 455.159 158.327 455.091 158.725 454.955C159.123 454.812 159.467 454.602 159.756 454.324C160.046 454.045 160.268 453.702 160.421 453.293L162.833 453.727C162.64 454.437 162.293 455.06 161.793 455.594C161.299 456.122 160.677 456.534 159.927 456.83C159.183 457.119 158.333 457.264 157.379 457.264ZM175.632 447.105L173.322 447.514C173.226 447.219 173.072 446.937 172.862 446.67C172.658 446.403 172.379 446.185 172.027 446.014C171.675 445.844 171.234 445.759 170.706 445.759C169.984 445.759 169.382 445.92 168.899 446.244C168.416 446.562 168.175 446.974 168.175 447.48C168.175 447.918 168.337 448.27 168.661 448.537C168.984 448.804 169.507 449.023 170.229 449.193L172.308 449.67C173.513 449.949 174.411 450.378 175.001 450.957C175.592 451.537 175.888 452.29 175.888 453.216C175.888 454 175.661 454.699 175.206 455.312C174.757 455.92 174.129 456.398 173.322 456.744C172.521 457.091 171.592 457.264 170.536 457.264C169.07 457.264 167.874 456.952 166.947 456.327C166.021 455.696 165.453 454.801 165.243 453.642L167.706 453.267C167.859 453.909 168.175 454.395 168.652 454.724C169.129 455.048 169.751 455.21 170.518 455.21C171.354 455.21 172.021 455.037 172.521 454.69C173.021 454.338 173.271 453.909 173.271 453.403C173.271 452.994 173.118 452.651 172.811 452.372C172.51 452.094 172.047 451.884 171.422 451.741L169.206 451.256C167.984 450.977 167.081 450.534 166.496 449.926C165.916 449.318 165.626 448.548 165.626 447.616C165.626 446.844 165.842 446.168 166.274 445.588C166.706 445.009 167.303 444.557 168.064 444.233C168.825 443.903 169.697 443.739 170.68 443.739C172.095 443.739 173.209 444.045 174.021 444.659C174.834 445.267 175.371 446.082 175.632 447.105ZM178.69 457V443.909H181.238V457H178.69ZM179.977 441.889C179.533 441.889 179.153 441.741 178.835 441.446C178.522 441.145 178.366 440.787 178.366 440.372C178.366 439.952 178.522 439.594 178.835 439.298C179.153 438.997 179.533 438.847 179.977 438.847C180.42 438.847 180.798 438.997 181.11 439.298C181.428 439.594 181.587 439.952 181.587 440.372C181.587 440.787 181.428 441.145 181.11 441.446C180.798 441.741 180.42 441.889 179.977 441.889ZM190.155 462.182C189.115 462.182 188.22 462.045 187.47 461.773C186.726 461.5 186.118 461.139 185.646 460.69C185.175 460.241 184.822 459.75 184.589 459.216L186.78 458.312C186.933 458.562 187.138 458.827 187.393 459.105C187.655 459.389 188.007 459.631 188.45 459.83C188.899 460.028 189.476 460.128 190.18 460.128C191.146 460.128 191.945 459.892 192.575 459.42C193.206 458.955 193.521 458.21 193.521 457.188V454.614H193.359C193.206 454.892 192.984 455.202 192.695 455.543C192.411 455.884 192.018 456.179 191.518 456.429C191.018 456.679 190.368 456.804 189.567 456.804C188.533 456.804 187.601 456.562 186.771 456.08C185.947 455.591 185.294 454.872 184.811 453.923C184.334 452.969 184.095 451.795 184.095 450.403C184.095 449.011 184.331 447.818 184.803 446.824C185.28 445.83 185.933 445.068 186.763 444.54C187.592 444.006 188.533 443.739 189.584 443.739C190.396 443.739 191.053 443.875 191.553 444.148C192.053 444.415 192.442 444.727 192.72 445.085C193.004 445.443 193.223 445.759 193.376 446.031H193.564V443.909H196.061V457.29C196.061 458.415 195.8 459.338 195.277 460.06C194.754 460.781 194.047 461.315 193.155 461.662C192.268 462.009 191.268 462.182 190.155 462.182ZM190.129 454.69C190.862 454.69 191.482 454.52 191.987 454.179C192.499 453.832 192.885 453.338 193.146 452.696C193.413 452.048 193.547 451.273 193.547 450.369C193.547 449.489 193.416 448.713 193.155 448.043C192.893 447.372 192.51 446.849 192.004 446.474C191.499 446.094 190.874 445.903 190.129 445.903C189.362 445.903 188.723 446.102 188.212 446.5C187.7 446.892 187.314 447.426 187.053 448.102C186.797 448.778 186.669 449.534 186.669 450.369C186.669 451.227 186.8 451.98 187.061 452.628C187.322 453.276 187.709 453.781 188.22 454.145C188.737 454.509 189.374 454.69 190.129 454.69ZM202.027 449.227V457H199.479V443.909H201.925V446.04H202.087C202.388 445.347 202.859 444.79 203.501 444.369C204.149 443.949 204.964 443.739 205.947 443.739C206.839 443.739 207.621 443.926 208.291 444.301C208.962 444.67 209.482 445.222 209.851 445.955C210.22 446.687 210.405 447.594 210.405 448.673V457H207.857V448.98C207.857 448.031 207.609 447.29 207.115 446.756C206.621 446.216 205.942 445.946 205.078 445.946C204.487 445.946 203.962 446.074 203.501 446.33C203.047 446.585 202.686 446.96 202.419 447.455C202.158 447.943 202.027 448.534 202.027 449.227ZM219.464 457.264C218.175 457.264 217.064 456.989 216.132 456.438C215.206 455.881 214.49 455.099 213.984 454.094C213.484 453.082 213.234 451.898 213.234 450.54C213.234 449.199 213.484 448.017 213.984 446.994C214.49 445.972 215.195 445.173 216.098 444.599C217.007 444.026 218.07 443.739 219.286 443.739C220.024 443.739 220.74 443.861 221.433 444.105C222.126 444.349 222.749 444.733 223.3 445.256C223.851 445.778 224.286 446.457 224.604 447.293C224.922 448.122 225.081 449.131 225.081 450.318V451.222H214.675V449.312H222.584C222.584 448.642 222.447 448.048 222.175 447.531C221.902 447.009 221.518 446.597 221.024 446.295C220.536 445.994 219.962 445.844 219.303 445.844C218.587 445.844 217.962 446.02 217.428 446.372C216.899 446.719 216.49 447.173 216.2 447.736C215.916 448.293 215.774 448.898 215.774 449.551V451.043C215.774 451.918 215.928 452.662 216.234 453.276C216.547 453.889 216.982 454.358 217.538 454.682C218.095 455 218.746 455.159 219.49 455.159C219.973 455.159 220.413 455.091 220.811 454.955C221.209 454.812 221.553 454.602 221.842 454.324C222.132 454.045 222.354 453.702 222.507 453.293L224.919 453.727C224.726 454.437 224.379 455.06 223.879 455.594C223.385 456.122 222.763 456.534 222.013 456.83C221.268 457.119 220.419 457.264 219.464 457.264ZM227.908 457V443.909H230.371V445.989H230.508C230.746 445.284 231.167 444.73 231.769 444.327C232.377 443.918 233.065 443.713 233.832 443.713C233.991 443.713 234.178 443.719 234.394 443.73C234.616 443.741 234.789 443.756 234.914 443.773V446.21C234.812 446.182 234.63 446.151 234.369 446.116C234.107 446.077 233.846 446.057 233.585 446.057C232.982 446.057 232.445 446.185 231.974 446.44C231.508 446.69 231.138 447.04 230.866 447.489C230.593 447.932 230.457 448.437 230.457 449.006V457H227.908Z" fill="#F1C40F"/>
<path d="M868 213.5H1434C1437.04 213.5 1439.5 215.962 1439.5 219V499.5H862.5V219C862.5 215.962 864.962 213.5 868 213.5Z" fill="#121212" stroke="#6E7D9A"/>
<path d="M868 213.5H996.5V499.5H862.5V219C862.5 215.962 864.962 213.5 868 213.5Z" stroke="#6E7D9A"/>
<path d="M868 213.5H1434C1437.04 213.5 1439.5 215.962 1439.5 219V231.5H862.5V219C862.5 215.962 864.962 213.5 868 213.5Z" fill="#121212" stroke="#6E7D9A"/>
<rect x="1014" y="218" width="275" height="9" rx="2" fill="#1A1F25"/>
<rect x="872" y="242" width="9" height="9" rx="2" fill="#5C616A"/>
<rect x="886" y="242" width="92" height="9" rx="2" fill="#5C616A"/>
<rect x="872" y="256" width="9" height="9" rx="2" fill="#5C616A"/>
<rect x="886" y="256" width="64" height="9" rx="2" fill="#5C616A"/>
<rect x="872" y="270" width="9" height="9" rx="2" fill="#FDFD96"/>
<rect x="886" y="270" width="71" height="9" rx="2" fill="#FDFD96"/>
<rect x="872" y="284" width="9" height="9" rx="2" fill="#F5AF17"/>
<rect x="886" y="284" width="48" height="9" rx="2" fill="#F5AF17"/>
<rect x="872" y="298" width="9" height="9" rx="2" fill="#5C616A"/>
<rect x="886" y="298" width="40" height="9" rx="2" fill="#5C616A"/>
<rect x="872" y="312" width="9" height="9" rx="2" fill="#5C616A"/>
<rect x="886" y="312" width="53" height="9" rx="2" fill="#5C616A"/>
<rect x="872" y="326" width="9" height="9" rx="2" fill="#FDFD96"/>
<rect x="886" y="326" width="82" height="9" rx="2" fill="#FDFD96"/>
<rect x="872" y="340" width="9" height="9" rx="2" fill="#FDFD96"/>
<rect x="886" y="340" width="40" height="9" rx="2" fill="#FDFD96"/>
<rect x="872" y="354" width="9" height="9" rx="2" fill="#5C616A"/>
<rect x="886" y="354" width="47" height="9" rx="2" fill="#5C616A"/>
<rect x="872" y="368" width="9" height="9" rx="2" fill="#F5AF17"/>
<rect x="886" y="368" width="60" height="9" rx="2" fill="#F5AF17"/>
<rect x="872" y="382" width="9" height="9" rx="2" fill="#F5AF17"/>
<rect x="886" y="382" width="34" height="9" rx="2" fill="#F5AF17"/>
<rect x="1007" y="242" width="9" height="9" rx="2" fill="#5C616A"/>
<rect x="1021" y="242" width="50" height="9" rx="2" fill="#FF006A"/>
<rect x="1076" y="242" width="50" height="9" rx="2" fill="#D9FFFF"/>
<rect x="1131" y="242" width="50" height="9" rx="2" fill="#517D9A"/>
<rect x="1007" y="242" width="9" height="9" rx="2" fill="#5C616A"/>
<rect x="1021" y="242" width="50" height="9" rx="2" fill="#FF006A"/>
<rect x="1076" y="242" width="50" height="9" rx="2" fill="#D9FFFF"/>
<rect x="1131" y="242" width="50" height="9" rx="2" fill="#517D9A"/>
<rect x="1007" y="254" width="9" height="9" rx="2" fill="#5C616A"/>
<rect x="1021" y="254" width="36" height="9" rx="2" fill="#FF006A"/>
<rect x="1062" y="254" width="59" height="9" rx="2" fill="#D9FFFF"/>
<rect x="1126" y="254" width="27" height="9" rx="2" fill="#517D9A"/>
<rect x="1007" y="266" width="9" height="9" rx="2" fill="#5C616A"/>
<rect x="1021" y="266" width="17" height="9" rx="2" fill="#FF006A"/>
<rect x="1043" y="266" width="35" height="9" rx="2" fill="#D9FFFF"/>
<rect x="1083" y="266" width="20" height="9" rx="2" fill="#517D9A"/>
<rect x="1007" y="278" width="9" height="9" rx="2" fill="#5C616A"/>
<rect x="1021" y="278" width="31" height="9" rx="2" fill="#FF006A"/>
<rect x="1057" y="278" width="37" height="9" rx="2" fill="#D9FFFF"/>
<rect x="1099" y="278" width="41" height="9" rx="2" fill="#517D9A"/>
<rect x="1007" y="290" width="9" height="9" rx="2" fill="#5C616A"/>
<rect x="1021" y="290" width="37" height="9" rx="2" fill="#1AA8DB"/>
<rect x="1063" y="290" width="50" height="9" rx="2" fill="#517D9A"/>
<rect x="1007" y="302" width="9" height="9" rx="2" fill="#5C616A"/>
<rect x="1021" y="302" width="50" height="9" rx="2" fill="#0DBC79"/>
<rect x="1076" y="302" width="50" height="9" rx="2" fill="#D9FFFF"/>
<rect x="1007" y="314" width="9" height="9" rx="2" fill="#5C616A"/>
<rect x="1021" y="314" width="36" height="9" rx="2" fill="#FF006A"/>
<rect x="1062" y="314" width="59" height="9" rx="2" fill="#D9FFFF"/>
<rect x="1126" y="314" width="27" height="9" rx="2" fill="#517D9A"/>
<rect x="1007" y="326" width="9" height="9" rx="2" fill="#5C616A"/>
<rect x="1021" y="326" width="17" height="9" rx="2" fill="#FF006A"/>
<rect x="1043" y="326" width="35" height="9" rx="2" fill="#D9FFFF"/>
<rect x="1083" y="326" width="20" height="9" rx="2" fill="#517D9A"/>
<rect x="1007" y="338" width="9" height="9" rx="2" fill="#5C616A"/>
<rect x="1007" y="350" width="9" height="9" rx="2" fill="#5C616A"/>
<rect x="1021" y="350" width="50" height="9" rx="2" fill="#1AA8DB"/>
<rect x="1076" y="350" width="50" height="9" rx="2" fill="#0DBC79"/>
<rect x="1131" y="350" width="50" height="9" rx="2" fill="#517D9A"/>
<rect x="1007" y="362" width="9" height="9" rx="2" fill="#5C616A"/>
<rect x="1021" y="362" width="31" height="9" rx="2" fill="#FF006A"/>
<rect x="1057" y="362" width="37" height="9" rx="2" fill="#D9FFFF"/>
<rect x="1099" y="362" width="41" height="9" rx="2" fill="#517D9A"/>
<rect x="1007" y="374" width="9" height="9" rx="2" fill="#5C616A"/>
<rect x="1021" y="374" width="41" height="9" rx="2" fill="#FF006A"/>
<rect x="1067" y="374" width="37" height="9" rx="2" fill="#D9FFFF"/>
<rect x="1109" y="374" width="50" height="9" rx="2" fill="#517D9A"/>
<rect x="1007" y="386" width="9" height="9" rx="2" fill="#5C616A"/>
<rect x="1021" y="386" width="31" height="9" rx="2" fill="#FF006A"/>
<rect x="1057" y="386" width="37" height="9" rx="2" fill="#D9FFFF"/>
<rect x="1099" y="386" width="41" height="9" rx="2" fill="#517D9A"/>
<rect x="1007" y="398" width="9" height="9" rx="2" fill="#5C616A"/>
<rect x="1021" y="398" width="37" height="9" rx="2" fill="#1AA8DB"/>
<rect x="1063" y="398" width="50" height="9" rx="2" fill="#517D9A"/>
<rect x="1007" y="410" width="9" height="9" rx="2" fill="#5C616A"/>
<rect x="1021" y="410" width="58" height="9" rx="2" fill="#0DBC79"/>
<rect x="1084" y="410" width="26" height="9" rx="2" fill="#D9FFFF"/>
<rect x="1115" y="410" width="35" height="9" rx="2" fill="#1AA8DB"/>
<rect x="1007" y="422" width="9" height="9" rx="2" fill="#5C616A"/>
<rect x="1021" y="422" width="50" height="9" rx="2" fill="#0DBC79"/>
<rect x="1076" y="422" width="50" height="9" rx="2" fill="#D9FFFF"/>
<rect x="1007" y="434" width="9" height="9" rx="2" fill="#5C616A"/>
<rect x="1021" y="434" width="50" height="9" rx="2" fill="#0DBC79"/>
<rect x="1076" y="434" width="50" height="9" rx="2" fill="#D9FFFF"/>
<rect x="1007" y="446" width="9" height="9" rx="2" fill="#5C616A"/>
<rect x="1007" y="458" width="9" height="9" rx="2" fill="#5C616A"/>
<rect x="1021" y="458" width="31" height="9" rx="2" fill="#FF006A"/>
<rect x="1057" y="458" width="37" height="9" rx="2" fill="#D9FFFF"/>
<rect x="1099" y="458" width="41" height="9" rx="2" fill="#517D9A"/>
<rect x="1007" y="470" width="9" height="9" rx="2" fill="#5C616A"/>
<rect x="1021" y="470" width="37" height="9" rx="2" fill="#1AA8DB"/>
<rect x="1063" y="470" width="50" height="9" rx="2" fill="#517D9A"/>
<rect x="1007" y="482" width="9" height="9" rx="2" fill="#5C616A"/>
<rect x="1021" y="482" width="50" height="9" rx="2" fill="#1AA8DB"/>
<rect x="1076" y="482" width="50" height="9" rx="2" fill="#0DBC79"/>
<rect x="1131" y="482" width="50" height="9" rx="2" fill="#517D9A"/>
<rect x="1007" y="494" width="9" height="9" rx="2" fill="#5C616A"/>
</g>
<rect x="1" y="1" width="1498" height="498" rx="5" stroke="#30363D" stroke-width="2"/>
<defs>
<clipPath id="clip0_1_4">
<rect width="1500" height="500" rx="6" fill="white"/>
</clipPath>
</defs>
</svg>
